<svg width="707" height="708" viewBox="0 0 707 708" fill="none" xmlns="http://www.w3.org/2000/svg">
<g opacity="0.7">
<path d="M264.457 246.774C310.899 212.626 365.329 227.342 409.05 246.774C452.771 266.206 524.824 295.403 493.263 383.998C454.918 491.636 281.075 460.958 242.212 428.488C181.569 377.822 181.873 307.497 264.457 246.774Z" stroke="#00C1EB" stroke-width="3.17787"/>
<path opacity="0.5" d="M235.636 185.382C293.317 142.97 411.747 168.681 466.049 192.815C520.351 216.949 601.325 298.359 543.349 418.769C481.784 546.635 233.361 511.126 185.093 470.798C109.776 407.87 133.067 260.8 235.636 185.382Z" stroke="#00C1EB" stroke-width="3.17787"/>
<path opacity="0.2" d="M198.996 168.793C269.148 117.21 418.139 119.964 484.182 149.317C550.225 178.669 674.769 259.217 591.3 442.85C519.878 599.979 254.642 594.485 157.261 519.363C62.7486 446.453 74.2494 260.518 198.996 168.793Z" stroke="#00C1EB" stroke-width="3.17787"/>
</g>
<g clip-path="url(#clip0_482_4125)">
<rect width="205.47" height="370.988" rx="17.1225" transform="matrix(-0.964382 -0.264515 -0.264515 0.964382 495.594 193.653)" fill="#4D5156"/>
<g clip-path="url(#clip1_482_4125)">
<rect width="154.47" height="266.994" transform="matrix(-0.964382 -0.264515 -0.264515 0.964382 461.451 224.925)" fill="#E2E8F1"/>
<path d="M464.979 308.603C474.284 314.263 477.343 326.598 471.731 335.824L430.68 403.304C424.907 412.793 412.708 415.484 403.403 409.824L284.303 337.371C274.733 331.549 271.779 319.64 277.551 310.151L318.602 242.67C324.214 233.444 336.309 230.328 345.879 236.15L464.979 308.603Z" fill="#CCF49F"/>
<path d="M465.123 308.691C474.428 314.351 477.487 326.685 471.875 335.911L430.824 403.392C425.052 412.881 412.852 415.572 403.547 409.911L284.447 337.459C274.877 331.637 271.923 319.728 277.696 310.238L318.746 242.758C324.359 233.532 336.453 230.416 346.023 236.238L465.123 308.691ZM311.724 330.939C317.337 321.713 314.277 309.379 304.973 303.718L294.71 320.589L311.724 330.939ZM325.498 269.978C334.803 275.639 347.002 272.948 352.775 263.459L335.761 253.108L325.498 269.978ZM413.81 393.041L424.073 376.171C414.502 370.349 402.408 373.465 396.796 382.691L413.81 393.041ZM454.861 325.561L437.846 315.21C432.074 324.7 435.027 336.609 444.598 342.431L454.861 325.561ZM359.391 348.38C373.481 356.951 391.808 352.571 400.307 338.6C408.806 324.63 404.269 306.341 390.179 297.77C375.824 289.036 357.763 293.579 349.264 307.549C340.765 321.52 345.036 339.647 359.391 348.38Z" fill="#0AA06E"/>
<g filter="url(#filter0_d_482_4125)">
<path d="M419.501 332.945C428.806 338.606 431.865 350.94 426.253 360.166L385.202 427.646C379.429 437.135 367.23 439.826 357.925 434.166L238.825 361.713C229.254 355.891 226.301 343.982 232.073 334.493L273.124 267.012C278.736 257.786 290.83 254.67 300.401 260.492L419.501 332.945Z" fill="#CCF49F"/>
</g>
<path d="M419.645 333.033C428.95 338.693 432.009 351.027 426.397 360.253L385.346 427.734C379.574 437.223 367.374 439.914 358.069 434.253L238.969 361.801C229.399 355.979 226.445 344.07 232.218 334.58L273.268 267.1C278.881 257.874 290.975 254.758 300.545 260.58L419.645 333.033ZM266.246 355.281C271.859 346.055 268.799 333.721 259.495 328.061L249.232 344.931L266.246 355.281ZM280.02 294.32C289.325 299.981 301.524 297.29 307.297 287.801L290.283 277.45L280.02 294.32ZM368.332 417.383L378.595 400.513C369.024 394.691 356.93 397.807 351.318 407.033L368.332 417.383ZM409.383 349.903L392.368 339.553C386.596 349.042 389.549 360.951 399.12 366.773L409.383 349.903ZM313.913 372.722C328.003 381.293 346.33 376.913 354.829 362.942C363.328 348.972 358.791 330.683 344.701 322.112C330.346 313.378 312.285 317.921 303.786 331.891C295.287 345.862 299.558 363.989 313.913 372.722Z" fill="#0AA06E"/>
</g>
</g>
<defs>
<filter id="filter0_d_482_4125" x="190.596" y="176.625" width="323.24" height="302.867" filterUnits="userSpaceOnUse" color-interpolation-filters="sRGB">
<feFlood flood-opacity="0" result="BackgroundImageFix"/>
<feColorMatrix in="SourceAlpha" type="matrix" values="0 0 0 0 0 0 0 0 0 0 0 0 0 0 0 0 0 0 127 0" result="hardAlpha"/>
<feOffset dx="23.1192" dy="-19.266"/>
<feGaussianBlur stdDeviation="30.8256"/>
<feColorMatrix type="matrix" values="0 0 0 0 0.104635 0 0 0 0 0.5125 0 0 0 0 0.290498 0 0 0 0.47 0"/>
<feBlend mode="normal" in2="BackgroundImageFix" result="effect1_dropShadow_482_4125"/>
<feBlend mode="normal" in="SourceGraphic" in2="effect1_dropShadow_482_4125" result="shape"/>
</filter>
<clipPath id="clip0_482_4125">
<rect width="205.47" height="370.988" rx="17.1225" transform="matrix(-0.964382 -0.264515 -0.264515 0.964382 495.594 193.653)" fill="white"/>
</clipPath>
<clipPath id="clip1_482_4125">
<rect width="154.47" height="266.994" fill="white" transform="matrix(-0.964382 -0.264515 -0.264515 0.964382 461.451 224.925)"/>
</clipPath>
</defs>
</svg>
