<svg width="838" height="838" viewBox="0 0 838 838" fill="none" xmlns="http://www.w3.org/2000/svg">
<g opacity="0.5">
<path d="M300.935 324.997C343.843 283.2 423.518 294.735 487.006 315.434C517.883 325.501 546.075 342.589 569.861 364.702C614.954 406.626 621.389 432.851 573.502 474.343C495.364 542.046 370.355 562.866 296.574 501.222C256.903 468.077 233.215 390.965 300.935 324.997Z" stroke="#00C1EB" stroke-width="3.17787"/>
<path opacity="0.7" d="M268.795 299.553C326.582 243.257 436.274 262.353 519.084 291.169C549.854 301.876 577.967 319.13 602.335 340.754C668.545 399.508 681.126 433.679 616.546 489.663C516.606 576.301 356.912 603.172 262.827 524.615C212.24 482.377 182.163 383.952 268.795 299.553Z" stroke="#00C1EB" stroke-width="3.17787"/>
<path opacity="0.5" d="M224.44 264.173C302.225 188.403 453.355 218.972 561.816 259.089C592.242 270.343 620.123 287.591 644.688 308.778C740.028 391.008 761.413 435.855 674.622 511.042C545.685 622.74 339.31 656.981 217.427 555.124C151.894 500.359 112.702 373.017 224.44 264.173Z" stroke="#00C1EB" stroke-width="3.17787"/>
<path opacity="0.2" d="M182.148 230.565C279.25 135.978 470.243 177.514 602.838 228.124C633.146 239.692 660.953 256.915 685.661 277.936C808.561 382.498 838.267 437.479 730.194 531.101C573.228 667.081 321.989 708.766 173.61 584.767C93.8306 518.096 46.1177 363.071 182.148 230.565Z" stroke="#00C1EB" stroke-width="3.17787"/>
</g>
<path d="M300.231 295.755C334.44 322.21 376.989 328.884 419.538 335.558C465.86 342.695 512.387 349.35 547.521 383.023C553.997 389.183 555.83 399.629 552.168 408.314L489.109 557.883C484.226 569.462 468.466 571.877 458.826 563.807C424.618 537.351 382.069 530.677 340.001 524.208C293.197 516.867 246.67 510.212 211.536 476.538C205.06 470.379 203.708 460.136 207.37 451.452L270.43 301.883C275.312 290.303 290.592 287.684 300.231 295.755Z" fill="#CCF49F"/>
<path d="M300.231 295.755C334.44 322.21 376.989 328.884 419.538 335.558C465.86 342.695 512.387 349.35 547.521 383.023C553.997 389.183 555.83 399.629 552.168 408.314L489.109 557.883C484.226 569.462 468.466 571.877 458.826 563.807C424.618 537.351 382.069 530.677 340.001 524.208C293.197 516.867 246.67 510.212 211.536 476.538C205.06 470.379 203.708 460.136 207.37 451.452L270.43 301.883C275.312 290.303 290.592 287.684 300.231 295.755Z" fill="#CCF49F"/>
<path d="M300.231 295.755C334.44 322.21 376.989 328.884 419.538 335.558C465.86 342.695 512.387 349.35 547.521 383.023C553.997 389.183 555.83 399.629 552.168 408.314L489.109 557.883C484.226 569.462 468.466 571.877 458.826 563.807C424.618 537.351 382.069 530.677 340.001 524.208C293.197 516.867 246.67 510.212 211.536 476.538C205.06 470.379 203.708 460.136 207.37 451.452L270.43 301.883C275.312 290.303 290.592 287.684 300.231 295.755Z" fill="#CCF49F"/>
<path d="M371.838 398.933C374.075 393.626 380.235 391.12 385.526 393.364L393.222 396.629C398.994 399.077 401.493 405.256 399.255 410.563L385.423 443.372L387.347 444.188C392.638 446.433 395.136 452.611 392.898 457.919C390.661 463.226 384.501 465.732 379.21 463.487L355.64 453.489C350.349 451.245 347.851 445.066 350.089 439.759C352.326 434.452 358.486 431.946 363.777 434.19L365.701 435.006L375.465 411.847C371.543 409.046 369.803 403.758 371.838 398.933ZM300.231 295.755C334.44 322.21 376.989 328.884 419.538 335.558C465.86 342.695 512.387 349.35 547.521 383.023C553.997 389.183 555.83 399.629 552.168 408.314L489.109 557.883C484.226 569.462 468.466 571.877 458.826 563.807C424.618 537.351 382.069 530.678 340.001 524.208C293.197 516.867 246.67 510.212 211.536 476.538C205.06 470.379 203.708 460.136 207.37 451.452L270.43 301.883C275.312 290.303 290.592 287.684 300.231 295.755ZM269.882 473.988C277.001 457.101 269.432 437.396 252.116 430.05L239.097 460.929L269.882 473.988ZM278.154 368.293C295.47 375.638 314.634 367.842 321.957 350.473L291.172 337.414L278.154 368.293ZM468.088 521.665L481.107 490.786C463.791 483.441 444.423 491.72 437.304 508.606L468.088 521.665ZM520.164 398.15L489.379 385.091C482.056 402.461 489.828 421.683 507.145 429.029L520.164 398.15ZM402.173 375.4C376.679 364.585 345.622 380.418 333.213 409.849C320.601 439.763 331.113 472.661 356.607 483.475C382.581 494.494 413.436 479.143 426.048 449.23C438.456 419.798 428.147 386.418 402.173 375.4Z" fill="#0AA06E"/>
<mask id="mask0_482_4139" style="mask-type:alpha" maskUnits="userSpaceOnUse" x="205" y="291" width="350" height="278">
<path d="M300.231 295.755C334.44 322.21 376.989 328.884 419.538 335.558C465.86 342.695 512.387 349.35 547.521 383.023C553.997 389.183 555.83 399.629 552.168 408.314L489.109 557.883C484.226 569.462 468.466 571.877 458.826 563.807C424.618 537.351 382.069 530.677 340.001 524.208C293.197 516.867 246.67 510.212 211.536 476.538C205.06 470.379 203.708 460.136 207.37 451.452L270.43 301.883C275.312 290.303 290.592 287.684 300.231 295.755Z" fill="#CCF49F"/>
</mask>
<g mask="url(#mask0_482_4139)">
<g filter="url(#filter0_d_482_4139)">
<path d="M373.892 266.29C408.1 292.746 450.649 299.42 493.198 306.093C539.521 313.231 586.048 319.885 621.182 353.559C627.658 359.718 629.491 370.165 625.829 378.85L562.769 528.419C557.887 539.998 542.126 542.413 532.487 534.342C498.278 507.887 455.729 501.213 413.662 494.743C366.858 487.402 320.331 480.748 285.197 447.074C278.721 440.915 277.369 430.672 281.031 421.987L344.091 272.418C348.973 260.839 364.252 258.22 373.892 266.29Z" fill="#CCF49F"/>
</g>
</g>
<path d="M373.891 266.29C408.1 292.746 450.649 299.42 493.198 306.093C539.521 313.231 586.047 319.885 621.182 353.559C627.658 359.718 629.491 370.165 625.829 378.85L562.769 528.419C557.887 539.998 542.126 542.413 532.487 534.342C498.278 507.887 455.729 501.213 413.661 494.743C366.857 487.402 320.331 480.748 285.196 447.074C278.721 440.915 277.369 430.672 281.03 421.987L344.09 272.418C348.972 260.839 364.252 258.22 373.891 266.29Z" fill="#CCF49F"/>
<path d="M373.891 266.29C408.1 292.746 450.649 299.42 493.198 306.093C539.521 313.231 586.047 319.885 621.182 353.559C627.658 359.718 629.491 370.165 625.829 378.85L562.769 528.419C557.887 539.998 542.126 542.413 532.487 534.342C498.278 507.887 455.729 501.213 413.661 494.743C366.857 487.402 320.331 480.748 285.196 447.074C278.721 440.915 277.369 430.672 281.03 421.987L344.09 272.418C348.972 260.839 364.252 258.22 373.891 266.29Z" fill="#CCF49F"/>
<path d="M445.498 369.469C447.736 364.161 453.896 361.655 459.187 363.9L466.883 367.164C472.655 369.613 475.153 375.792 472.916 381.099L459.083 413.908L461.007 414.724C466.298 416.968 468.797 423.147 466.559 428.454C464.321 433.762 458.162 436.268 452.87 434.023L429.301 424.025C424.01 421.781 421.512 415.602 423.749 410.295C425.987 404.987 432.147 402.481 437.438 404.726L439.362 405.542L449.126 382.383C445.204 379.582 443.464 374.293 445.498 369.469ZM373.891 266.29C408.1 292.746 450.649 299.42 493.198 306.093C539.521 313.231 586.047 319.885 621.182 353.559C627.658 359.718 629.491 370.165 625.829 378.85L562.769 528.419C557.887 539.998 542.126 542.413 532.487 534.342C498.278 507.887 455.729 501.213 413.661 494.743C366.857 487.402 320.331 480.748 285.196 447.074C278.721 440.915 277.369 430.672 281.03 421.987L344.09 272.418C348.972 260.839 364.252 258.22 373.891 266.29ZM343.542 444.523C350.662 427.637 343.093 407.931 325.777 400.586L312.758 431.465L343.542 444.523ZM351.814 338.828C369.13 346.174 388.294 338.378 395.617 321.008L364.833 307.95L351.814 338.828ZM541.749 492.201L554.768 461.322C537.451 453.977 518.084 462.255 510.964 479.142L541.749 492.201ZM593.824 368.686L563.04 355.627C555.717 372.996 563.489 392.219 580.805 399.565L593.824 368.686ZM475.833 345.935C450.34 335.121 419.282 350.954 406.874 380.385C394.262 410.299 404.774 443.197 430.267 454.011C456.242 465.029 487.096 449.679 499.708 419.765C512.117 390.334 501.808 356.954 475.833 345.935Z" fill="#0AA06E"/>
<defs>
<filter id="filter0_d_482_4139" x="202.761" y="233.022" width="456.709" height="385.504" filterUnits="userSpaceOnUse" color-interpolation-filters="sRGB">
<feFlood flood-opacity="0" result="BackgroundImageFix"/>
<feColorMatrix in="SourceAlpha" type="matrix" values="0 0 0 0 0 0 0 0 0 0 0 0 0 0 0 0 0 0 127 0" result="hardAlpha"/>
<feOffset dx="-22.2451" dy="25.4229"/>
<feGaussianBlur stdDeviation="27.0119"/>
<feColorMatrix type="matrix" values="0 0 0 0 0.104635 0 0 0 0 0.5125 0 0 0 0 0.290498 0 0 0 0.47 0"/>
<feBlend mode="normal" in2="BackgroundImageFix" result="effect1_dropShadow_482_4139"/>
<feBlend mode="normal" in="SourceGraphic" in2="effect1_dropShadow_482_4139" result="shape"/>
</filter>
</defs>
</svg>
