<svg width="45" height="41" viewBox="0 0 45 41" fill="none" xmlns="http://www.w3.org/2000/svg">
<path d="M43.4779 5.78521C43.56 6.87879 43.5709 7.96358 43.5194 8.96845C43.4317 9.67994 43.3889 10.6137 43.2485 11.752C42.8275 15.1672 41.5332 18.0413 39.5079 20.3919C37.7402 22.4131 35.3577 24.1418 32.2804 25.6405L31.3682 33.04C31.2805 33.7514 30.9967 34.2943 30.6416 34.8284C30.2153 35.3536 29.6728 35.6479 29.0679 35.8623L21.6488 38.5592C21.0439 38.7735 20.4828 38.6321 19.9568 38.2061C19.4221 37.8513 19.2698 37.3269 19.3487 36.6866L20.182 29.9274C18.9721 30.3561 17.9935 30.6689 17.3174 30.8744C17.0861 30.9904 16.8724 30.964 16.5963 30.8578C16.3114 30.8226 16.1865 30.6628 16.0615 30.5029L12.0642 25.3874C11.9392 25.2276 11.8143 25.0677 11.8494 24.7831C11.8133 24.4897 11.8396 24.2763 12.0084 24.0804C12.4522 23.4128 12.9936 22.5406 13.6238 21.5348L6.85695 20.7006C6.21589 20.6216 5.74359 20.3467 5.52884 19.7424C5.24286 19.1293 5.31302 18.5601 5.66811 18.026L10.0267 11.4125C10.3818 10.8785 10.7906 10.4955 11.4043 10.21C12.0092 9.99563 12.6053 9.85243 13.3176 9.94024L20.7255 10.8535C22.9284 8.23581 25.1947 6.27606 27.507 5.11652C30.2818 3.72506 33.4587 3.1777 36.8777 3.59919C38.0886 3.74847 39.0058 3.93377 39.6469 4.0128C40.6354 4.20688 41.6863 4.48089 42.7284 4.82605C43.1382 5.02104 43.3881 5.34076 43.4779 5.78521ZM34.7621 14.8952C35.6881 15.0094 36.5067 14.8213 37.3067 14.1977C38.0267 13.6364 38.4793 12.8976 38.6021 11.9015C38.7161 10.9766 38.4565 10.1501 37.9031 9.35955C37.2697 8.6314 36.5301 8.17906 35.6041 8.06491C34.6069 7.94197 33.7795 8.20113 33.0595 8.76244C32.2595 9.38612 31.8781 10.1336 31.764 11.0586C31.6412 12.0547 31.8297 12.8724 32.463 13.6006C33.0164 14.3911 33.7648 14.7723 34.7621 14.8952Z" fill="#00C1EB"/>
<path d="M4.25296 29.9223C2.58241 31.5929 0.288923 39.1404 0.0328761 39.9945C-0.0498707 40.2693 0.0266311 40.5675 0.228034 40.7705C0.377915 40.9204 0.576195 41 0.78072 41C0.85566 41 0.930601 40.9891 1.00554 40.9672C1.85955 40.7112 9.40668 38.4175 11.0772 36.7469C12.9586 34.8655 12.9586 31.8037 11.0772 29.9223C9.19435 28.0408 6.13428 28.0424 4.25296 29.9223Z" fill="url(#paint0_linear_1222_3156)"/>
<defs>
<linearGradient id="paint0_linear_1222_3156" x1="6.24411" y1="28.5118" x2="6.24411" y2="41" gradientUnits="userSpaceOnUse">
<stop stop-color="#F15500"/>
<stop offset="1" stop-color="#F7BD9E"/>
</linearGradient>
</defs>
</svg>
