<svg width="24" height="24" viewBox="0 0 24 24" fill="none" xmlns="http://www.w3.org/2000/svg">
<rect width="24" height="24" rx="12" fill="#98C6E0"/>
<path d="M11.9999 12C14.1982 12 16.0196 10.2495 16.0196 8.06896C16.0196 5.91918 14.1982 4.13793 11.9999 4.13793C9.77026 4.13793 7.98023 5.91918 7.98023 8.06896C7.98023 10.2495 9.77026 12 11.9999 12ZM14.7949 12.9828H14.261C13.5701 13.3206 12.8164 13.4741 11.9999 13.4741C11.1834 13.4741 10.3983 13.3206 9.70745 12.9828H9.17358C6.84969 12.9828 4.96545 14.8561 4.96545 17.1288V18.3879C4.96545 19.2171 5.62494 19.8621 6.47284 19.8621H17.527C18.3435 19.8621 19.0344 19.2171 19.0344 18.3879V17.1288C19.0344 14.8561 17.1188 12.9828 14.7949 12.9828Z" fill="white"/>
<rect width="24" height="24" rx="12" fill="#98C6E0"/>
<path d="M12.0001 12C14.1983 12 16.0198 10.2495 16.0198 8.06896C16.0198 5.91917 14.1983 4.13792 12.0001 4.13792C9.77038 4.13792 7.98035 5.91917 7.98035 8.06896C7.98035 10.2495 9.77038 12 12.0001 12ZM14.795 12.9828H14.2611C13.5703 13.3206 12.8166 13.4741 12.0001 13.4741C11.1836 13.4741 10.3985 13.3206 9.70757 12.9828H9.1737C6.84981 12.9828 4.96558 14.8561 4.96558 17.1288V18.3879C4.96558 19.2171 5.62506 19.8621 6.47297 19.8621H17.5272C18.3437 19.8621 19.0345 19.2171 19.0345 18.3879V17.1288C19.0345 14.8561 17.1189 12.9828 14.795 12.9828Z" fill="white"/>
<path d="M2.92119 6.68722C3.0557 6.69205 3.18842 6.7466 3.29246 6.8499L18.7781 18.9301C19.0669 19.1395 19.1073 19.5143 18.8562 19.7542C18.6312 20.0199 18.2259 20.0551 17.9649 19.8217L2.47925 7.74158C2.19047 7.53209 2.15006 7.1573 2.40112 6.91743C2.51408 6.77215 2.70597 6.67949 2.92119 6.68722Z" fill="#98C6E0"/>
<path d="M3.13672 6.02344C3.35547 5.72266 3.76562 5.66797 4.03906 5.91406L20.2266 18.6016C20.5273 18.8203 20.582 19.2305 20.3359 19.5039C20.1172 19.8047 19.707 19.8594 19.4336 19.6133L3.24609 6.92578C2.94531 6.70703 2.89062 6.29688 3.13672 6.02344Z" fill="white"/>
</svg>
