<svg width="346" height="346" viewBox="0 0 346 346" fill="none" xmlns="http://www.w3.org/2000/svg">
<path d="M125.48 207.171C125.48 207.171 118.803 202.514 115.737 203.358C112.671 204.202 108.741 208.513 108.741 208.513C108.741 208.513 116.519 206.271 118.865 206.742C121.056 207.052 123.268 207.195 125.48 207.171Z" fill="#CEEAF5"/>
<path d="M127.729 208.853C126.754 211.053 125.079 212.887 124.138 215.081C123.067 217.643 123.049 220.525 124.089 223.101C125.817 221.171 126.993 218.812 127.494 216.271C127.983 213.921 128.245 211.529 128.276 209.129L127.729 208.853Z" fill="#CEEAF5"/>
<path d="M126.705 208.292C127.01 207.392 119.453 207.787 117.017 210.7C114.581 213.613 112.173 216.783 114.249 224.139C114.249 224.139 118.809 216.167 118.809 216.285C118.809 216.402 126.096 210.05 126.705 208.292Z" fill="#CEEAF5"/>
<path d="M126.761 208.188C126.069 208.458 132.926 210.548 136.096 210.804C137.832 211.002 139.591 210.725 141.182 210.001C141.182 210.001 136.58 204.375 126.761 208.188Z" fill="#CEEAF5"/>
<path d="M161.451 237.121C161.451 237.121 164.758 235.737 165.692 236.706C166.627 237.674 170.44 242.698 174.059 243.01C174.059 243.01 170.751 235.979 167.755 234.844C165.782 234.097 161.451 237.121 161.451 237.121Z" fill="#CEEAF5"/>
<path d="M162.302 236.74C162.302 236.74 162.17 234.256 160.918 232.948C159.665 231.64 155.174 230.754 155.174 230.754C156.081 232.185 157.191 233.476 158.468 234.588C159.656 235.455 160.943 236.177 162.302 236.74Z" fill="#CEEAF5"/>
<path d="M162.302 236.595C162.302 236.595 159.997 236.595 158.371 239.439C157.288 241.392 156.486 243.489 155.991 245.667C156.129 245.425 160.336 243.591 161.444 241.252C162.109 239.794 162.404 238.194 162.302 236.595Z" fill="#CEEAF5"/>
<path d="M162.821 236.595C162.821 236.595 163.236 242.075 164.163 243.01C165.09 243.944 166.44 247.348 166.44 247.348C166.44 247.348 168.516 242.387 167.367 240.013C166.218 237.64 162.821 236.595 162.821 236.595Z" fill="#CEEAF5"/>
<path d="M142.739 247.182C142.476 247.577 137.203 251.687 136.379 253.68C135.556 255.673 136.248 258.718 136.379 259.645C136.511 260.573 141.147 258.448 141.915 254.87C142.43 252.339 142.705 249.765 142.739 247.182Z" fill="#CEEAF5"/>
<path d="M143.777 244.103C143.777 244.76 143.853 251.258 145.562 253.528C146.999 255.262 148.623 256.831 150.406 258.206C150.406 258.206 151.527 249.992 149.161 247.452C147.675 245.903 145.823 244.751 143.777 244.103Z" fill="#CEEAF5"/>
<path d="M142.995 245.217C142.607 245.127 137.812 244.67 135.528 247.404C134.085 249.179 132.889 251.142 131.971 253.237C131.971 253.237 139.223 249.639 140.552 248.047C141.881 246.456 142.995 245.217 142.995 245.217Z" fill="#CEEAF5"/>
<path d="M146.296 242.242C146.898 241.829 147.606 241.6 148.336 241.582C149.065 241.563 149.784 241.756 150.406 242.138C152.558 243.48 156.143 248.698 156.143 248.698C156.143 248.698 151.756 248.428 149.472 246.214C148.196 245.079 147.122 243.736 146.296 242.242Z" fill="#CEEAF5"/>
<path d="M143.175 243.051C143.175 243.051 140.407 240.685 138.269 240.159C136.13 239.633 129.916 241.183 129.916 241.183C132.038 242.617 134.589 243.276 137.141 243.051C141.452 242.678 143.175 243.051 143.175 243.051Z" fill="#CEEAF5"/>
<path d="M133.944 267.112C133.944 267.112 131.951 270.96 133.944 273.084C135.936 275.208 137.002 279.45 137.002 279.45C137.002 279.45 140.462 276.129 138.718 272.42C137.7 270.208 136.035 268.358 133.944 267.112Z" fill="#CEEAF5"/>
<path d="M130.788 267.209C130.255 267.479 126.809 272.115 126.546 275.43C126.283 278.745 126.013 284.426 126.546 284.052C127.079 283.679 130.919 280.073 131.978 276.627C133.037 273.181 130.788 267.209 130.788 267.209Z" fill="#CEEAF5"/>
<path d="M129.452 266.849C128.927 266.98 123.916 266.053 121.1 269.617C119.139 272.34 117.493 275.277 116.194 278.371C116.194 278.371 123.487 274.641 125.19 272.593C126.892 270.544 129.452 266.849 129.452 266.849Z" fill="#CEEAF5"/>
<path d="M157.914 260.483C157.914 260.483 156.399 264.994 157.914 268.973C158.781 271.281 159.865 273.501 161.153 275.603C161.153 275.603 163.395 267.645 161.942 265.52C160.489 263.396 157.914 260.483 157.914 260.483Z" fill="#CEEAF5"/>
<path d="M158.745 260.005C159.278 260.503 165.499 269.43 169.727 270.226C173.955 271.022 170.384 269.887 170.384 269.887C170.384 269.887 169.056 263.873 167.16 261.382C165.263 258.891 158.745 260.005 158.745 260.005Z" fill="#CEEAF5"/>
<path d="M157.776 259.846C157.776 259.846 162.364 256.663 164.156 255.853C165.949 255.044 171.886 256.109 171.886 256.109C171.886 256.109 164.696 259.86 162.966 259.5C161.236 259.14 157.797 260.635 157.797 260.635" fill="#CEEAF5"/>
<path d="M173.747 216.437C173.747 216.437 169.775 220.651 170.287 223.945C170.668 226.14 171.238 228.298 171.99 230.394L173.734 224.602L173.747 216.437Z" fill="#CEEAF5"/>
<path d="M174.287 215.593C174.287 215.593 173.367 222.049 175.207 224.678C177.048 227.308 179.553 232.29 179.816 231.924C180.079 231.557 183.899 228.104 181.138 223.232C179.406 220.24 177.074 217.639 174.287 215.593Z" fill="#CEEAF5"/>
<path d="M172.952 216.734C172.952 216.734 166.599 214.894 165.686 217.925C164.772 220.956 164.004 223.585 164.004 223.585C165.349 222.18 166.854 220.938 168.488 219.883C170.037 218.923 171.528 217.872 172.952 216.734Z" fill="#CEEAF5"/>
<path d="M144.462 218.444L144.981 217.994C146.483 216.714 150.863 213.191 153.077 213.731C155.267 214.351 157.409 215.13 159.485 216.063C159.485 216.063 149.887 221.046 144.462 218.444Z" fill="#CEEAF5"/>
<path d="M145.749 218.485C145.749 218.008 142.863 217.239 140.31 219.869C137.756 222.499 137.369 224.125 137.369 224.125C137.369 224.125 145.569 223.032 145.749 218.485Z" fill="#CEEAF5"/>
<path d="M145.32 219.018C145.32 219.018 142.4 222.374 144.628 225.668C146.856 228.962 148.78 232.125 148.78 232.125C149.468 229.994 149.468 227.702 148.78 225.571C147.98 223.218 146.812 221.006 145.32 219.018Z" fill="#CEEAF5"/>
<path d="M156.212 227.377C156.081 226.575 157.139 220.001 148.441 220.651H147.645C147.645 220.651 151.797 227.364 152.759 229.474C153.33 230.911 154.256 232.18 155.451 233.163C156.475 234.083 156.344 228.18 156.212 227.377Z" fill="#CEEAF5"/>
<path d="M157.894 260.192C157.948 259.165 157.792 258.137 157.435 257.172C157.078 256.207 156.528 255.325 155.818 254.58C155.686 254.435 155.492 254.289 155.319 254.372C155.265 254.407 155.217 254.453 155.181 254.506C155.144 254.56 155.118 254.62 155.105 254.684C154.79 255.905 154.964 257.201 155.589 258.296C156.221 259.375 157.015 260.35 157.942 261.189" fill="#CEEAF5"/>
<path d="M133.383 266.275C131.806 263.408 129.327 261.141 126.332 259.825C126.153 259.726 125.947 259.685 125.743 259.708C125.594 259.754 125.463 259.846 125.368 259.97C125.272 260.093 125.218 260.244 125.21 260.4C125.201 261.054 125.449 261.685 125.902 262.157C127.82 264.662 130.622 266.338 133.736 266.842" fill="#CEEAF5"/>
<path d="M168.232 256.566C168.232 256.566 167.789 256.566 166.987 256.69C165.862 256.839 164.761 257.125 163.706 257.542C162.143 258.164 160.67 258.993 159.326 260.005C157.696 261.269 156.152 262.64 154.704 264.109C151.541 267.188 148.752 270.039 146.822 272.184C145.86 273.257 145.092 274.136 144.566 274.752L143.95 275.444C143.811 275.603 143.735 275.686 143.721 275.679C143.771 275.58 143.831 275.487 143.901 275.402C144.033 275.236 144.22 274.98 144.469 274.669C144.967 274.032 145.708 273.125 146.656 272.032C148.552 269.845 151.32 266.953 154.482 263.88C155.937 262.396 157.498 261.02 159.153 259.763C160.526 258.747 162.033 257.925 163.63 257.32C164.708 256.919 165.834 256.665 166.98 256.566C167.288 256.548 167.598 256.548 167.907 256.566C168.015 256.554 168.124 256.554 168.232 256.566Z" fill="#CEEAF5"/>
<path d="M143.555 273.776C143.507 273.811 142.988 272.911 141.86 271.7C140.393 270.127 138.592 268.903 136.59 268.117C134.588 267.332 132.435 267.005 130.29 267.161C128.643 267.271 127.653 267.576 127.639 267.52C127.858 267.411 128.091 267.332 128.331 267.285C128.969 267.116 129.619 267 130.276 266.939C132.462 266.718 134.669 267.021 136.715 267.823C138.76 268.624 140.586 269.901 142.04 271.548C142.482 272.041 142.88 272.571 143.23 273.133C143.365 273.333 143.474 273.549 143.555 273.776Z" fill="#CEEAF5"/>
<path d="M145.265 218.395C145.271 218.46 145.271 218.525 145.265 218.589C145.265 218.727 145.265 218.914 145.216 219.143C145.168 219.648 145.099 220.361 145.009 221.267C144.822 223.108 144.552 225.779 144.254 229.08C143.673 235.675 142.981 244.816 142.995 254.926C143.009 265.036 143.735 274.177 144.247 280.779C144.517 284.066 144.732 286.737 144.884 288.606C144.953 289.512 145.009 290.225 145.05 290.73C145.05 290.958 145.05 291.145 145.085 291.284C145.094 291.348 145.094 291.413 145.085 291.477C145.067 291.416 145.056 291.354 145.05 291.291C145.05 291.145 145.05 290.965 144.988 290.737C144.932 290.232 144.856 289.519 144.766 288.613C144.58 286.772 144.317 284.101 144.026 280.8C143.459 274.198 142.711 265.057 142.642 254.926C142.573 244.795 143.334 235.654 144.026 229.059C144.351 225.758 144.656 223.094 144.877 221.253C144.992 220.331 145.082 219.625 145.147 219.136L145.23 218.582C145.231 218.518 145.243 218.455 145.265 218.395Z" fill="#CEEAF5"/>
<path d="M165.097 236.193C164.794 236.274 164.483 236.323 164.17 236.339C163.575 236.401 162.71 236.519 161.651 236.685C156.119 237.574 150.792 239.449 145.922 242.221C144.988 242.747 144.247 243.196 143.735 243.522C143.482 243.704 143.211 243.859 142.926 243.985C143.158 243.775 143.408 243.585 143.673 243.418C144.157 243.065 144.891 242.587 145.811 242.034C150.655 239.147 156.03 237.264 161.617 236.498C162.689 236.359 163.554 236.276 164.156 236.249C164.468 236.203 164.783 236.184 165.097 236.193Z" fill="#CEEAF5"/>
<path d="M143.625 233.259C143.589 233.144 143.562 233.026 143.542 232.907C143.493 232.637 143.438 232.298 143.362 231.882C143.286 231.342 143.18 230.806 143.043 230.277C142.884 229.661 142.767 228.941 142.497 228.201C142.372 227.82 142.248 227.419 142.116 227.004C141.985 226.589 141.798 226.173 141.632 225.73C141.306 224.845 140.85 223.945 140.393 222.962C139.319 220.929 138.051 219.003 136.608 217.212C133.923 213.995 130.799 211.172 127.328 208.825C126.684 208.347 126.055 207.988 125.522 207.628C124.989 207.268 124.512 206.998 124.138 206.77L123.245 206.216C123.139 206.16 123.04 206.092 122.948 206.015C123.064 206.049 123.176 206.098 123.28 206.161L124.193 206.652C124.595 206.86 125.079 207.123 125.619 207.469C126.159 207.815 126.802 208.161 127.466 208.624C130.992 210.937 134.154 213.762 136.85 217.004C138.308 218.812 139.58 220.762 140.649 222.824C141.106 223.724 141.515 224.648 141.874 225.592C142.033 226.042 142.227 226.457 142.344 226.886C142.462 227.315 142.594 227.71 142.711 228.097C142.916 228.796 143.084 229.505 143.216 230.222C143.343 230.755 143.433 231.296 143.486 231.841C143.535 232.263 143.576 232.602 143.604 232.872C143.631 232.999 143.638 233.13 143.625 233.259Z" fill="#CEEAF5"/>
<path d="M174.744 216.132C174.64 216.196 174.528 216.248 174.412 216.285L173.436 216.651C172.585 216.956 171.36 217.419 169.865 218.035C165.963 219.599 162.158 221.392 158.468 223.405C154.789 225.44 151.235 227.693 147.825 230.152C146.51 231.093 145.465 231.875 144.753 232.429L143.922 233.059C143.828 233.136 143.726 233.203 143.618 233.259C143.618 233.259 143.701 233.162 143.881 233.003L144.676 232.311C145.368 231.73 146.393 230.927 147.694 229.945C154.462 224.897 161.895 220.808 169.782 217.793C171.291 217.219 172.55 216.783 173.388 216.513L174.384 216.202C174.501 216.166 174.622 216.143 174.744 216.132Z" fill="#CEEAF5"/>
<path d="M156.378 321.143H131.397L128.788 290.626H159.305L156.378 321.143Z" fill="#CEEAF5"/>
<path d="M161.333 290.626H126.857V295.318H161.333V290.626Z" fill="#CEEAF5"/>
<path d="M161.111 295.332C161.111 295.415 153.396 295.491 143.895 295.491C134.393 295.491 126.671 295.415 126.671 295.332C126.671 295.249 134.38 295.173 143.895 295.173C153.41 295.173 161.111 295.242 161.111 295.332Z" fill="#EBEBEB"/>
<path d="M121.017 29.417H29.41V181.048H121.017V29.417Z" fill="#CEEAF5"/>
<path d="M117.972 29.417H26.3652V181.048H117.972V29.417Z" fill="#CEEAF5"/>
<path d="M114.069 32.4963H30.2681V177.975H114.069V32.4963Z" fill="#FAFAFA"/>
<path d="M97.7519 51.3948H46.2187V159.07H97.7519V51.3948Z" fill="#CEEAF5"/>
<path d="M46.2187 120.969C46.101 110.914 55.1455 101.094 65.1034 99.6896C69.8505 98.9976 74.9021 99.9595 79.3378 98.1395C87.2612 94.894 89.7801 84.3687 97.7519 81.2478L98.1118 159.07H46.2118L46.2187 120.969Z" fill="#CEEAF5"/>
<path d="M296.743 272.018L153.998 271.956C151.878 271.952 149.847 271.108 148.35 269.608C146.853 268.108 146.012 266.076 146.012 263.956L146.123 52.156C146.122 51.1053 146.328 50.0646 146.73 49.0937C147.131 48.1227 147.721 47.2405 148.464 46.4975C149.207 45.7545 150.089 45.1653 151.06 44.7636C152.031 44.3619 153.071 44.1556 154.122 44.1565L296.861 44.2326C298.981 44.2326 301.014 45.0747 302.513 46.5736C304.012 48.0725 304.854 50.1054 304.854 52.2252L304.736 264.026C304.736 266.145 303.894 268.178 302.395 269.677C300.896 271.176 298.863 272.018 296.743 272.018Z" fill="#263238"/>
<path d="M299.498 59.9341H150.78V250.165H299.498V59.9341Z" fill="white"/>
<path d="M231.467 260.538C231.466 261.742 231.107 262.919 230.437 263.92C229.767 264.921 228.815 265.7 227.701 266.16C226.588 266.619 225.364 266.739 224.183 266.502C223.002 266.266 221.917 265.685 221.067 264.832C220.216 263.979 219.637 262.894 219.404 261.712C219.17 260.531 219.292 259.306 219.754 258.194C220.216 257.082 220.998 256.132 222 255.464C223.002 254.796 224.18 254.44 225.384 254.441C226.184 254.441 226.976 254.599 227.715 254.906C228.454 255.212 229.125 255.662 229.69 256.228C230.255 256.794 230.703 257.466 231.008 258.206C231.313 258.946 231.469 259.738 231.467 260.538Z" fill="#455A64"/>
<path d="M248.546 50.7512H202.431C201.964 50.7512 201.587 51.1292 201.587 51.5955V52.4259C201.587 52.8921 201.964 53.2701 202.431 53.2701H248.546C249.012 53.2701 249.39 52.8921 249.39 52.4259V51.5955C249.39 51.1292 249.012 50.7512 248.546 50.7512Z" fill="#455A64"/>
<path d="M293.166 223.848C292.931 223.848 292.698 223.802 292.481 223.712C292.264 223.621 292.067 223.489 291.901 223.323C291.735 223.156 291.604 222.959 291.514 222.741C291.425 222.524 291.38 222.291 291.38 222.056L291.45 87.0051C291.45 86.7701 291.496 86.5373 291.586 86.3203C291.676 86.1032 291.808 85.9061 291.975 85.7402C292.141 85.5743 292.339 85.443 292.557 85.3537C292.774 85.2643 293.007 85.2188 293.242 85.2197C293.715 85.2216 294.168 85.4102 294.502 85.7447C294.837 86.0791 295.025 86.5322 295.027 87.0051L294.944 222.056C294.945 222.29 294.9 222.523 294.811 222.74C294.722 222.957 294.591 223.154 294.426 223.32C294.261 223.487 294.065 223.619 293.848 223.71C293.632 223.8 293.4 223.847 293.166 223.848Z" fill="#CEEAF5"/>
<path d="M256.289 75.4972C256.289 75.601 242.491 75.6702 225.474 75.6633C208.458 75.6563 194.66 75.5664 194.66 75.4695C194.66 75.3726 208.458 75.2965 225.474 75.3034C242.491 75.3103 256.289 75.428 256.289 75.4972Z" fill="#263238"/>
<path d="M165.229 78.9294H165.429H165.983L168.011 78.8741L167.948 78.9433C167.948 78.4866 167.948 77.9952 167.948 77.4624C167.948 77.1925 167.948 76.9365 167.948 76.6112C167.981 76.4454 168.066 76.2942 168.19 76.1798C168.315 76.0653 168.472 75.9934 168.64 75.9746C168.973 75.9746 169.256 75.9746 169.616 75.9746C169.808 76.0013 169.984 76.0966 170.111 76.2429C170.238 76.3892 170.308 76.5765 170.308 76.7704C170.308 77.4624 170.308 78.1544 170.308 78.9225L170.204 78.8187H172.772L172.661 78.9294C172.661 77.8983 172.661 76.8534 172.661 75.7324C172.661 75.4625 172.661 75.1857 172.661 74.9158C172.65 74.7959 172.612 74.68 172.549 74.5769C172.487 74.4738 172.402 74.3862 172.301 74.3207L171.18 73.2135L170.1 72.1478C169.927 71.9679 169.748 71.7949 169.575 71.6288C169.402 71.4628 169.256 71.2759 169.049 71.2344C168.951 71.2098 168.848 71.207 168.749 71.2261C168.65 71.2452 168.556 71.2858 168.474 71.3451C168.322 71.4697 168.149 71.6565 167.997 71.8087L167.028 72.6599C166.447 73.2619 165.838 73.8156 165.402 74.3276C165.277 74.6295 165.234 74.9589 165.277 75.2826C165.277 75.6009 165.277 75.8985 165.277 76.1891C165.277 76.7358 165.277 77.2202 165.277 77.6423C165.277 78.0644 165.277 78.3343 165.277 78.5765C165.287 78.6893 165.287 78.8028 165.277 78.9156C165.268 78.812 165.268 78.7078 165.277 78.6042C165.277 78.3551 165.277 78.0506 165.277 77.6907V76.2168C165.277 75.9261 165.277 75.6217 165.277 75.2964V74.7913C165.277 74.6017 165.327 74.4154 165.423 74.2515C165.9 73.6633 166.467 73.1512 167.049 72.5284L167.962 71.5942C168.12 71.4219 168.286 71.2579 168.46 71.1029C168.567 71.0224 168.69 70.967 168.82 70.9406C168.951 70.9142 169.086 70.9177 169.215 70.9507C169.461 71.0388 169.677 71.1948 169.838 71.4005L170.363 71.9125L171.45 72.9782L172.571 74.0854C172.693 74.1707 172.795 74.2819 172.869 74.4111C172.943 74.5403 172.988 74.6843 173 74.8328C173 75.1096 173 75.3795 173 75.6563C173 76.7496 173 77.8222 173 78.8533V78.964H172.889H170.322H170.218V78.8879C170.218 78.1405 170.218 77.4278 170.218 76.7358C170.223 76.59 170.175 76.4475 170.081 76.3352C169.988 76.2229 169.857 76.1488 169.713 76.1268C169.422 76.1268 169.069 76.1268 168.786 76.1268C168.654 76.1391 168.53 76.1935 168.431 76.282C168.333 76.3705 168.265 76.4884 168.239 76.6182C168.239 76.8742 168.239 77.1787 168.239 77.4347V78.9779H168.177H166.101H165.568L165.229 78.9294Z" fill="#263238"/>
<path d="M282.924 72.051C282.904 72.0299 282.877 72.0175 282.848 72.0164H276.793H274.496L274.454 71.6704L274.357 70.9784C274.354 70.9545 274.343 70.9324 274.325 70.916C274.307 70.8996 274.284 70.8898 274.26 70.8884H272.579C272.447 70.8884 272.357 70.8884 272.357 70.9991C272.357 71.1099 272.447 71.1099 272.579 71.1099H274.115L274.973 77.7392C274.974 77.752 274.977 77.7644 274.983 77.7758C274.989 77.7872 274.997 77.7974 275.006 77.8058C275.016 77.8141 275.027 77.8205 275.039 77.8245C275.051 77.8285 275.064 77.8301 275.077 77.8292H280.018H281.872C282.031 77.8292 282.108 77.8292 282.108 77.7254C282.108 77.6216 282.031 77.6147 281.872 77.6077L275.243 77.5178L275.091 76.3483L282.052 76.4383C282.077 76.4388 282.1 76.4307 282.119 76.4155C282.138 76.4004 282.151 76.379 282.156 76.3552L282.668 73.5872L282.945 72.0925C282.941 72.0772 282.934 72.0629 282.924 72.051ZM274.53 72.2032L282.613 72.3139L281.921 76.1891H276.959H275.084L274.53 72.2032Z" fill="#263238"/>
<path d="M276.952 79.3999C276.911 79.2185 276.811 79.0557 276.669 78.9363C276.56 78.8492 276.432 78.7913 276.295 78.7683C276.158 78.7453 276.017 78.7578 275.887 78.8048C275.725 78.8625 275.586 78.9685 275.487 79.1085C275.389 79.2485 275.336 79.4156 275.336 79.5868C275.336 79.758 275.389 79.9251 275.487 80.0651C275.586 80.205 275.725 80.3111 275.887 80.3687C275.975 80.401 276.069 80.4174 276.163 80.4172C276.346 80.4178 276.524 80.3568 276.669 80.2442C276.818 80.1327 276.922 79.9702 276.959 79.7875C276.97 79.7233 276.97 79.6579 276.959 79.5937C276.964 79.5291 276.962 79.4641 276.952 79.3999ZM275.97 80.0919C275.865 80.053 275.775 79.983 275.712 79.8915C275.648 79.8 275.614 79.6913 275.614 79.5799C275.614 79.4685 275.648 79.3598 275.712 79.2682C275.775 79.1767 275.865 79.1068 275.97 79.0678C276.031 79.058 276.095 79.058 276.156 79.0678C276.276 79.0692 276.392 79.1079 276.489 79.1785C276.59 79.2548 276.666 79.3614 276.703 79.483C276.708 79.5221 276.708 79.5615 276.703 79.6006V79.5799C276.711 79.6187 276.711 79.6587 276.703 79.6975C276.666 79.8191 276.59 79.9257 276.489 80.002C276.414 80.0648 276.324 80.1069 276.228 80.1239C276.132 80.1409 276.034 80.1323 275.942 80.0989L275.97 80.0919Z" fill="#263238"/>
<path d="M281.353 79.4346C281.32 79.2537 281.221 79.0913 281.077 78.9779C280.97 78.8884 280.841 78.8285 280.704 78.8042C280.567 78.7799 280.426 78.7921 280.295 78.8395C280.133 78.8971 279.994 79.0032 279.895 79.1432C279.797 79.2831 279.744 79.4502 279.744 79.6214C279.744 79.7927 279.797 79.9597 279.895 80.0997C279.994 80.2397 280.133 80.3458 280.295 80.4034C280.383 80.4357 280.477 80.4521 280.571 80.4518C280.754 80.4524 280.932 80.3915 281.077 80.2788C281.226 80.1674 281.33 80.0048 281.367 79.8221C281.378 79.758 281.378 79.6925 281.367 79.6284C281.373 79.5635 281.369 79.4979 281.353 79.4346ZM280.378 80.1266C280.274 80.0849 280.186 80.013 280.125 79.9205C280.063 79.8279 280.03 79.7189 280.032 79.6076C280.032 79.4966 280.067 79.3886 280.132 79.2982C280.196 79.2078 280.287 79.1394 280.391 79.1024C280.453 79.0926 280.516 79.0926 280.578 79.1024C280.698 79.1039 280.814 79.1426 280.91 79.2132C280.978 79.2619 281.035 79.325 281.075 79.3979C281.116 79.4709 281.14 79.5519 281.146 79.6353C281.153 79.6741 281.153 79.7141 281.146 79.7529C281.11 79.8754 281.035 79.9826 280.931 80.0574C280.858 80.112 280.772 80.1475 280.681 80.1608C280.591 80.1741 280.498 80.1647 280.412 80.1335L280.378 80.1266Z" fill="#263238"/>
<path d="M242.456 103.523L240.435 132.172C240.279 134.426 239.274 136.536 237.622 138.078C235.971 139.619 233.795 140.476 231.536 140.476C230.315 140.477 229.106 140.227 227.986 139.741C226.865 139.256 225.856 138.545 225.021 137.654C224.186 136.763 223.543 135.709 223.132 134.559C222.72 133.409 222.55 132.187 222.63 130.968C222.81 128.241 222.969 126.013 222.969 126.013C222.969 126.013 216.049 124.934 215.952 118.007C215.904 114.007 216.596 104.928 217.191 97.9388C217.385 95.6724 218.423 93.5615 220.099 92.0237C221.775 90.4859 223.968 89.6334 226.242 89.6348H230.436C232.145 89.7358 233.816 90.1779 235.352 90.9351C236.887 91.6924 238.255 92.7494 239.375 94.0438C240.496 95.3382 241.345 96.8439 241.874 98.4719C242.404 100.1 242.601 101.818 242.456 103.523Z" fill="#FFBE9D"/>
<path d="M222.969 125.979C226.16 125.965 229.281 125.041 231.965 123.314C231.965 123.314 229.744 128.352 222.824 127.729L222.969 125.979Z" fill="#EB996E"/>
<path d="M218.485 104.554C218.61 104.679 219.364 104.125 220.423 104.132C221.482 104.139 222.27 104.665 222.388 104.533C222.506 104.402 222.319 104.243 221.98 103.994C221.517 103.677 220.97 103.508 220.409 103.509C219.855 103.509 219.315 103.683 218.866 104.008C218.541 104.264 218.43 104.492 218.485 104.554Z" fill="#263238"/>
<path d="M227.979 107.509C227.977 107.767 228.076 108.015 228.254 108.201C228.433 108.387 228.677 108.497 228.934 108.506C229.06 108.514 229.186 108.498 229.305 108.457C229.424 108.417 229.534 108.354 229.628 108.271C229.723 108.188 229.8 108.087 229.856 107.974C229.911 107.861 229.944 107.738 229.952 107.613C229.955 107.355 229.857 107.105 229.679 106.919C229.5 106.732 229.255 106.624 228.997 106.616C228.871 106.606 228.744 106.621 228.624 106.661C228.504 106.7 228.394 106.764 228.299 106.847C228.204 106.93 228.127 107.032 228.072 107.146C228.017 107.259 227.985 107.383 227.979 107.509Z" fill="#263238"/>
<path d="M218.471 107.509C218.469 107.767 218.568 108.015 218.746 108.201C218.925 108.387 219.169 108.497 219.426 108.506C219.552 108.515 219.679 108.499 219.799 108.459C219.919 108.42 220.03 108.356 220.125 108.273C220.22 108.19 220.298 108.089 220.354 107.976C220.41 107.862 220.443 107.739 220.45 107.613C220.452 107.355 220.354 107.107 220.175 106.921C219.997 106.735 219.753 106.625 219.495 106.616C219.369 106.606 219.242 106.621 219.122 106.661C219.002 106.7 218.89 106.763 218.795 106.847C218.7 106.93 218.622 107.031 218.566 107.145C218.511 107.259 218.478 107.383 218.471 107.509Z" fill="#263238"/>
<path d="M228.768 104.693C228.893 104.824 229.647 104.271 230.706 104.271C231.765 104.271 232.554 104.81 232.671 104.679C232.789 104.547 232.602 104.388 232.256 104.139C231.798 103.819 231.251 103.65 230.692 103.655C230.138 103.654 229.598 103.828 229.149 104.153C228.824 104.402 228.713 104.637 228.768 104.693Z" fill="#263238"/>
<path d="M224.983 112.976C224.422 112.8 223.84 112.696 223.253 112.665C222.983 112.665 222.727 112.582 222.679 112.395C222.656 112.115 222.719 111.835 222.859 111.592L223.668 109.516C224.782 106.568 225.592 104.146 225.467 104.098C225.343 104.049 224.346 106.409 223.232 109.357C222.962 110.083 222.706 110.775 222.464 111.433C222.292 111.76 222.24 112.137 222.319 112.499C222.359 112.595 222.42 112.681 222.498 112.751C222.576 112.82 222.668 112.871 222.769 112.9C222.92 112.939 223.076 112.96 223.232 112.962C223.813 113.041 224.401 113.046 224.983 112.976Z" fill="#263238"/>
<path d="M228.118 113.716C227.945 113.716 227.945 114.858 226.955 115.682C225.966 116.505 224.734 116.374 224.727 116.533C224.72 116.692 224.997 116.761 225.516 116.775C226.194 116.784 226.853 116.554 227.377 116.125C227.879 115.712 228.204 115.122 228.284 114.478C228.36 113.993 228.194 113.71 228.118 113.716Z" fill="#263238"/>
<path d="M228.837 100.838C228.941 101.122 230.007 100.991 231.253 101.136C232.498 101.281 233.515 101.627 233.681 101.371C233.751 101.247 233.578 100.97 233.169 100.679C232.628 100.329 232.011 100.113 231.37 100.049C230.732 99.9708 230.084 100.047 229.481 100.271C229.052 100.472 228.789 100.7 228.837 100.838Z" fill="#263238"/>
<path d="M218.326 101.336C218.513 101.579 219.246 101.336 220.125 101.336C221.004 101.336 221.758 101.502 221.924 101.246C222.001 101.122 221.883 100.88 221.558 100.651C221.12 100.378 220.61 100.24 220.094 100.256C219.578 100.272 219.078 100.441 218.658 100.741C218.347 100.97 218.243 101.219 218.326 101.336Z" fill="#263238"/>
<path d="M240.124 108.727C240.242 108.672 244.885 107.343 244.733 112.056C244.58 116.768 239.854 115.661 239.854 115.516C239.854 115.37 240.124 108.727 240.124 108.727Z" fill="#FFBE9D"/>
<path d="M241.356 113.779C241.356 113.779 241.439 113.834 241.57 113.903C241.763 113.995 241.984 114.007 242.186 113.938C242.499 113.756 242.758 113.492 242.934 113.176C243.111 112.859 243.199 112.501 243.19 112.139C243.215 111.733 243.152 111.327 243.003 110.948C242.967 110.793 242.893 110.648 242.788 110.527C242.683 110.407 242.55 110.314 242.401 110.256C242.306 110.229 242.204 110.236 242.113 110.275C242.023 110.314 241.948 110.383 241.902 110.471C241.84 110.602 241.868 110.692 241.84 110.699C241.812 110.706 241.743 110.623 241.785 110.423C241.816 110.307 241.884 110.205 241.979 110.132C242.116 110.044 242.28 110.007 242.442 110.028C242.635 110.074 242.812 110.168 242.958 110.301C243.105 110.434 243.215 110.602 243.28 110.789C243.465 111.206 243.549 111.662 243.522 112.118C243.459 113.073 242.947 113.952 242.255 114.125C242.127 114.159 241.992 114.163 241.862 114.138C241.731 114.113 241.608 114.059 241.501 113.979C241.363 113.889 241.342 113.786 241.356 113.779Z" fill="#EB996E"/>
<path d="M242.754 108.561C242.304 108.531 241.854 108.624 241.453 108.83C241.052 109.036 240.715 109.347 240.477 109.731C240.166 110.423 240.103 111.177 239.785 111.848C239.664 112.201 239.429 112.502 239.117 112.706C238.804 112.909 238.433 113.002 238.062 112.969C237.817 112.892 237.596 112.751 237.423 112.562C237.249 112.372 237.128 112.14 237.072 111.89C236.975 111.384 236.975 110.865 237.072 110.36C237.356 108.146 237.82 105.952 237.91 103.724C238.093 101.489 237.612 99.25 236.526 97.2884C235.356 95.3923 233.204 93.9944 230.99 94.1744C229.516 94.292 228.166 95.0601 226.706 95.2608C225.835 95.3765 224.949 95.292 224.116 95.0138C223.283 94.7356 222.524 94.271 221.897 93.6554C221.738 93.5031 220.997 93.0118 220.997 93.0118C221.02 92.4853 221.193 91.9764 221.495 91.5448C224.402 88.8667 229.626 88.0848 233.46 89.0812C235.409 89.5588 237.231 90.4556 238.797 91.7094C240.364 92.9631 241.639 94.5435 242.532 96.3403C244.179 99.9318 243.695 104.928 242.781 108.561" fill="#263238"/>
<path d="M216.43 96.6863C216.792 97.3839 217.33 97.9753 217.99 98.4023C218.65 98.8294 219.41 99.0775 220.194 99.1222C221.765 99.1853 223.334 98.9505 224.817 98.4302C227.151 97.849 229.536 97.4967 231.938 97.3783C232.173 97.3783 232.45 97.3783 232.574 97.1846C232.699 96.9908 232.477 96.6033 232.235 96.4164C230.159 94.7972 225.177 93.8007 222.547 93.6969C221.235 93.6084 219.922 93.8577 218.734 94.4211C217.545 94.9844 216.521 95.8429 215.759 96.9147" fill="#263238"/>
<path d="M217.108 96.88C218.529 95.5607 220.341 94.7418 222.27 94.548C228.263 94.0359 238.09 95.8766 243.245 106.194C243.82 104.417 244.183 102.577 244.324 100.714C244.324 99.3297 243.48 90.915 234.851 88.2577C234.851 88.2577 221.841 83.2961 217.108 96.88Z" fill="#2B478B"/>
<g opacity="0.4">
<path d="M217.108 96.88C218.621 95.2854 220.697 94.3444 222.893 94.2573C228.249 94.0151 238.387 96.4717 243.245 106.194C243.82 104.417 244.183 102.577 244.324 100.714C244.324 99.3297 243.48 90.915 234.851 88.2577C234.851 88.2577 221.841 83.2961 217.108 96.88Z" fill="black"/>
</g>
<path d="M242.442 104.713C239.854 100.34 235.972 97.3714 231.82 94.7625C227.668 92.1537 220.748 89.5656 215.973 88.3062C214.565 87.841 213.074 87.6829 211.6 87.8425C210.864 87.9362 210.169 88.235 209.595 88.705C209.021 89.1749 208.591 89.7969 208.354 90.4998C207.898 92.299 211.088 95.067 212.582 96.1534C214.048 97.1329 215.565 98.0315 217.129 98.8453C217.129 98.8453 217.087 95.503 222.423 94.8248C229.668 93.9114 242.657 104.9 242.442 104.713Z" fill="#2B478B"/>
<path d="M232.761 91.7109C229.704 89.9924 226.232 89.1496 222.727 89.275C223.224 89.1195 223.743 89.0471 224.263 89.0605C226.789 88.9801 229.288 89.5877 231.495 90.8182C231.963 91.0451 232.39 91.3466 232.761 91.7109Z" fill="white"/>
<path d="M268.053 204.611C268.053 204.707 250.338 204.79 228.485 204.79C206.631 204.79 188.916 204.707 188.916 204.611C188.916 204.514 206.631 204.431 228.485 204.431C250.338 204.431 268.053 204.514 268.053 204.611Z" fill="#263238"/>
<path d="M195.144 147.991L184.958 152.593L169.152 139.708L164.308 147.32C164.308 147.32 173.304 157.735 176.647 161.278C179.989 164.821 182.183 166.703 184.833 166.364C187.484 166.025 202.472 158.953 202.472 158.953C202.472 158.953 198.929 148.434 195.144 147.991Z" fill="#FFBE9D"/>
<path d="M151.804 133.21C151.804 133.21 153.79 134.705 155.091 134.594C156.392 134.483 161.319 134.476 161.672 134.504C162.025 134.532 166.834 137.141 166.834 137.141L170.35 140.517L164.814 148.185C164.814 148.185 163.907 147.14 163.284 147.216C162.662 147.292 155.084 146.649 153.942 146.261C152.801 145.874 151.34 145.645 150.96 144.946C150.579 144.247 150.496 143.742 151.541 142.87C151.541 142.87 150.157 141.784 151.154 140.441C151.154 140.441 149.576 139.286 150.143 138.22C150.143 138.22 149.251 137.853 149.105 137.286C149.039 136.693 149.06 136.094 149.168 135.507L151.43 134.815C151.43 134.815 150.766 133.999 151.804 133.21Z" fill="#FFBE9D"/>
<path d="M150.918 134.94C150.918 134.94 151.022 134.899 151.209 134.843C151.483 134.753 151.766 134.694 152.053 134.67C152.505 134.691 152.937 134.859 153.285 135.148C153.512 135.329 153.679 135.575 153.763 135.853C153.847 136.131 153.844 136.428 153.755 136.705C153.705 136.852 153.625 136.986 153.518 137.1C153.412 137.213 153.283 137.303 153.14 137.362C152.902 137.461 152.653 137.533 152.399 137.577L151.181 137.826C150.811 137.936 150.425 137.985 150.039 137.971C150.38 137.787 150.746 137.657 151.126 137.583L152.323 137.251C152.78 137.141 153.278 137.037 153.416 136.559C153.48 136.348 153.48 136.123 153.417 135.912C153.354 135.7 153.232 135.512 153.063 135.369C152.777 135.116 152.424 134.953 152.046 134.899C151.775 134.895 151.505 134.914 151.237 134.954C151.029 135.002 150.918 134.975 150.918 134.94Z" fill="#EB996E"/>
<path d="M153.755 136.94C153.755 136.94 153.935 136.857 154.281 136.788C154.774 136.688 155.274 136.632 155.776 136.621C156.545 136.586 157.306 136.782 157.963 137.182C158.372 137.442 158.666 137.848 158.786 138.317C158.846 138.578 158.823 138.851 158.721 139.099C158.62 139.346 158.444 139.557 158.219 139.701C157.768 139.899 157.279 139.998 156.786 139.992L155.485 140.095L153.292 140.248C152.616 140.324 151.936 140.34 151.257 140.296C151.918 140.132 152.592 140.03 153.271 139.992L155.458 139.763L156.759 139.639C157.197 139.637 157.632 139.553 158.039 139.389C158.203 139.288 158.331 139.138 158.408 138.962C158.485 138.785 158.506 138.589 158.468 138.4C158.365 138.013 158.117 137.681 157.776 137.473C157.175 137.093 156.48 136.892 155.769 136.891C154.537 136.857 153.762 137.016 153.755 136.94Z" fill="#EB996E"/>
<path d="M158.468 139.708C158.468 139.708 158.606 139.708 158.752 139.923C158.848 140.065 158.911 140.228 158.934 140.398C158.956 140.569 158.939 140.742 158.883 140.905C158.792 141.141 158.649 141.352 158.464 141.525C158.28 141.698 158.059 141.826 157.818 141.902C157.26 142.063 156.682 142.14 156.101 142.13C153.714 142.241 151.825 142.704 151.797 142.601C153.162 142.065 154.614 141.784 156.081 141.77C156.628 141.78 157.175 141.72 157.707 141.59C157.909 141.534 158.097 141.435 158.259 141.302C158.421 141.169 158.554 141.003 158.648 140.815C158.703 140.686 158.731 140.547 158.731 140.407C158.731 140.267 158.703 140.128 158.648 139.999C158.51 139.784 158.413 139.736 158.468 139.708Z" fill="#EB996E"/>
<path d="M166.281 141.043C165.982 141.247 165.642 141.379 165.284 141.431C164.435 141.621 163.559 141.661 162.696 141.549C161.834 141.431 161 141.162 160.233 140.753C159.651 140.435 159.347 140.151 159.375 140.116C161.5 141.231 163.951 141.56 166.295 141.043H166.281Z" fill="#EB996E"/>
<path d="M158.392 137.507C158.44 137.417 158.932 137.59 159.541 137.507C160.15 137.424 160.592 137.168 160.655 137.251C160.717 137.334 160.309 137.791 159.582 137.867C158.856 137.943 158.337 137.583 158.392 137.507Z" fill="#EB996E"/>
<path d="M157.852 145.071C157.888 144.698 157.999 144.337 158.179 144.009C158.359 143.681 158.603 143.392 158.897 143.161C159.408 142.608 160.117 142.28 160.869 142.248C160.269 142.601 159.694 142.994 159.146 143.424C158.677 143.942 158.244 144.492 157.852 145.071Z" fill="#EB996E"/>
<path d="M141.438 164.973H171.491L177.069 208.929H135.563L141.438 164.973Z" fill="#2B478B"/>
<path d="M171.491 164.973H174.972L185.228 208.929H177.069L171.491 164.973Z" fill="#2B478B"/>
<path opacity="0.3" d="M171.491 164.973H174.972L185.228 208.929H177.069L171.491 164.973Z" fill="black"/>
<path d="M154.704 142.116C154.704 142.116 154.793 142.068 154.946 142.116C155.167 142.179 155.356 142.325 155.472 142.524C155.564 142.671 155.621 142.838 155.638 143.011C155.655 143.184 155.631 143.359 155.569 143.521C155.417 143.91 155.126 144.228 154.752 144.413C154.274 144.628 153.753 144.73 153.23 144.711L153.361 144.621C152.967 145.375 152.496 145.714 152.461 145.666C152.427 145.618 152.773 145.216 153.084 144.49L153.119 144.413H153.216C153.693 144.399 154.164 144.291 154.6 144.095C154.907 143.956 155.153 143.71 155.292 143.403C155.347 143.285 155.375 143.156 155.375 143.026C155.375 142.896 155.347 142.767 155.292 142.649C155.05 142.206 154.69 142.171 154.704 142.116Z" fill="#EB996E"/>
<path d="M149.071 166.89C149.064 166.59 149.087 166.291 149.14 165.997C149.202 165.429 149.32 164.613 149.486 163.589C149.811 161.561 150.365 158.745 151.008 155.714C151.652 152.683 152.247 149.88 152.641 147.866C152.821 146.912 152.98 146.116 153.098 145.479C153.136 145.182 153.206 144.89 153.306 144.607C153.312 144.906 153.289 145.205 153.236 145.5C153.174 146.074 153.057 146.884 152.89 147.908C152.565 149.936 152.012 152.752 151.361 155.79C150.711 158.828 150.129 161.623 149.735 163.637C149.555 164.585 149.396 165.388 149.278 166.018C149.242 166.315 149.173 166.608 149.071 166.89Z" fill="#2B478B"/>
<path d="M164.938 167.333C164.801 167.005 164.69 166.667 164.606 166.322C164.405 165.63 164.142 164.661 163.831 163.554C163.187 161.195 162.329 157.928 161.395 154.316C160.461 150.704 159.644 147.396 159.063 145.043C158.8 143.901 158.572 142.967 158.371 142.227C158.275 141.885 158.21 141.535 158.177 141.182C158.315 141.509 158.426 141.847 158.51 142.192C158.71 142.884 158.973 143.853 159.285 144.96C159.928 147.32 160.786 150.586 161.72 154.205C162.655 157.824 163.471 161.091 164.046 163.464L164.738 166.288C164.836 166.629 164.904 166.979 164.938 167.333Z" fill="#2B478B"/>
<path d="M185.228 208.929C184.708 208.649 184.223 208.31 183.781 207.918C182.916 207.261 181.705 206.327 180.446 205.282L179.795 204.749L180.058 204.708C179.249 205.925 178.522 206.998 177.982 207.752C177.725 208.179 177.418 208.574 177.069 208.929C177.254 208.47 177.486 208.032 177.761 207.621C178.238 206.832 178.93 205.739 179.733 204.514L179.837 204.348L179.996 204.472L180.647 204.998C181.934 206.05 183.089 207.012 183.913 207.725C184.39 208.081 184.83 208.485 185.228 208.929Z" fill="#263238"/>
<path d="M173.318 164.973C173.415 164.973 174.972 173.817 176.778 184.764C178.584 195.712 179.996 204.597 179.892 204.611C179.789 204.624 178.238 195.767 176.432 184.819C174.626 173.872 173.221 164.987 173.318 164.973Z" fill="#263238"/>
<path d="M173.249 177.45C173.033 177.694 172.802 177.925 172.557 178.142C171.854 178.746 171.086 179.271 170.267 179.706C168.968 180.401 167.566 180.882 166.115 181.131C164.187 181.478 162.204 181.362 160.329 180.792C159.231 180.447 158.233 179.839 157.423 179.02C156.527 178.129 155.967 176.956 155.838 175.699C155.786 175.02 155.894 174.338 156.155 173.709C156.416 173.08 156.822 172.522 157.34 172.08C157.886 171.61 158.567 171.326 159.285 171.27C160.02 171.219 160.755 171.372 161.409 171.713C162.069 172.044 162.648 172.517 163.104 173.097C163.567 173.716 163.899 174.422 164.08 175.173C164.433 176.682 164.433 178.252 164.08 179.761C163.418 182.956 161.767 185.861 159.361 188.065C158.143 189.183 156.737 190.078 155.209 190.708C153.732 191.342 152.127 191.617 150.524 191.511C148.964 191.389 147.475 190.811 146.24 189.85C145.038 188.935 144.223 187.601 143.957 186.113C143.692 184.696 143.979 183.23 144.759 182.017C145.117 181.434 145.622 180.956 146.223 180.632C146.825 180.307 147.502 180.148 148.185 180.169C148.514 180.201 148.834 180.298 149.125 180.455C149.416 180.612 149.673 180.825 149.88 181.083C150.263 181.547 150.527 182.098 150.648 182.688C150.845 183.831 150.708 185.005 150.254 186.072C149.472 187.884 148.118 189.391 146.4 190.362C145.106 191.082 143.703 191.587 142.248 191.857C141.333 192.032 140.409 192.148 139.48 192.203C139.168 192.203 138.926 192.238 138.788 192.238H138.545H138.788L139.48 192.168C140.398 192.082 141.31 191.944 142.213 191.753C143.635 191.463 145.002 190.946 146.261 190.224C147.928 189.262 149.235 187.782 149.984 186.01C150.411 184.989 150.535 183.867 150.344 182.778C150.242 182.215 150.005 181.685 149.652 181.235C149.467 181.008 149.239 180.821 148.982 180.683C148.724 180.545 148.441 180.46 148.15 180.432C147.522 180.418 146.902 180.571 146.353 180.875C145.803 181.179 145.344 181.623 145.022 182.162C144.289 183.307 144.022 184.688 144.275 186.024C144.531 187.429 145.307 188.687 146.448 189.546C147.631 190.459 149.055 191.008 150.545 191.124C153.596 191.359 156.703 189.926 159.077 187.76C161.423 185.618 163.037 182.793 163.693 179.685C164.035 178.228 164.035 176.712 163.693 175.256C163.524 174.561 163.218 173.907 162.793 173.332C162.368 172.779 161.827 172.326 161.208 172.004C160.609 171.693 159.937 171.552 159.264 171.595C158.616 171.636 157.996 171.878 157.492 172.287C157.014 172.697 156.64 173.214 156.399 173.796C156.159 174.378 156.059 175.009 156.108 175.637C156.226 176.828 156.751 177.943 157.596 178.792C158.365 179.583 159.315 180.175 160.364 180.515C162.199 181.088 164.143 181.219 166.038 180.896C167.473 180.662 168.862 180.207 170.156 179.546C170.975 179.129 171.75 178.628 172.467 178.052C172.716 177.865 172.889 177.699 173.021 177.595C173.089 177.535 173.166 177.485 173.249 177.45Z" fill="white"/>
<path d="M215.786 134.525H210.368C208.624 135.141 194.556 147.105 194.556 147.105L202.507 159.603L212.818 153.576L215.786 134.525Z" fill="#455A64"/>
<path d="M210.368 134.525L222.34 129.978C222.34 129.978 224.09 133.653 229.419 132.864C234.747 132.075 241.037 128.324 241.037 128.324C241.037 128.324 250.213 133.563 252.926 135.75C255.639 137.936 250.739 183.719 250.739 183.719L249.514 197.441C249.514 197.441 250.476 198.133 250.476 200.5C250.476 202.867 250.566 204.431 250.566 204.431H203.137C203.137 204.431 201.981 198.929 202.853 196.743C203.495 195.221 204.271 193.76 205.171 192.376L205.912 171.228L206.174 152.351L210.368 134.525Z" fill="#455A64"/>
<path d="M252.926 135.75C252.926 135.75 256.753 136.829 257.888 142.504C259.023 148.178 258.808 169.852 258.808 169.852L237.439 165.222C237.439 165.222 240.332 156.129 240.332 155.534C240.332 154.939 246.214 140.262 246.421 139.95C246.629 139.639 252.926 135.75 252.926 135.75Z" fill="#455A64"/>
<path d="M205.815 143.438C205.912 143.438 206.05 147.223 206.119 151.901C206.188 156.579 206.161 160.364 206.064 160.364C205.967 160.364 205.828 156.579 205.759 151.908C205.69 147.237 205.711 143.438 205.815 143.438Z" fill="#263238"/>
<path d="M243.017 145.472C243.022 145.724 242.994 145.975 242.934 146.22C242.864 146.704 242.74 147.396 242.574 148.247C242.235 149.949 241.716 152.295 241.037 154.856C240.359 157.416 239.653 159.7 239.121 161.367C238.844 162.191 238.615 162.855 238.429 163.312C238.359 163.555 238.257 163.788 238.124 164.004C238.154 163.754 238.212 163.508 238.297 163.27C238.449 162.724 238.636 162.066 238.865 161.291C239.349 159.63 240.006 157.326 240.678 154.766C241.349 152.205 241.909 149.88 242.311 148.192L242.788 146.192C242.828 145.942 242.905 145.699 243.017 145.472Z" fill="#263238"/>
<path d="M241.01 145.009C241.111 146.463 241.095 147.923 240.961 149.375C240.94 150.83 240.804 152.281 240.553 153.714C240.444 152.262 240.46 150.803 240.601 149.354C240.619 147.897 240.756 146.444 241.01 145.009Z" fill="#263238"/>
<path d="M235.681 152.171C232.627 152.411 229.559 152.411 226.505 152.171C228.028 151.989 229.562 151.929 231.093 151.991C232.625 151.929 234.159 151.989 235.681 152.171Z" fill="white"/>
<path d="M211.191 183.283L234.837 180.439L238.567 165.464L251.791 168.329C251.791 168.329 246.56 189.089 241.169 191.123C235.778 193.158 209.102 189.739 209.102 189.739L211.191 183.283Z" fill="#FFBE9D"/>
<path d="M210.23 183.11C208.949 182.569 207.631 182.123 206.285 181.775C205.192 181.615 203.898 181.858 203.573 182.384L197.22 186.086C197.22 186.086 192.507 185.636 192.058 186.695C192.058 186.695 189.047 185.837 188.563 186.446C188.563 186.446 187.055 186.937 187.304 187.629C187.553 188.321 192.992 190.231 192.992 190.231L200.445 190.992C200.445 190.992 203.289 189.449 204.465 189.324C205.601 189.32 206.735 189.41 207.856 189.594C207.759 189.594 212.216 190.099 212.216 190.099C212.216 190.099 213.122 189.124 213.489 186.439C213.856 183.754 213.489 183.193 213.489 183.193L210.23 183.11Z" fill="#FFBE9D"/>
<path d="M207.067 186.522C207.067 186.522 206.866 186.522 206.604 186.342C206.341 186.162 206.112 185.712 205.697 185.428C205.442 185.298 205.165 185.213 204.88 185.179C204.503 185.137 204.148 184.98 203.863 184.729C203.552 184.433 203.355 184.036 203.31 183.608C203.278 183.377 203.298 183.143 203.367 182.92C203.437 182.698 203.554 182.493 203.711 182.321C204.022 182.024 204.401 181.809 204.815 181.696C205.23 181.582 205.666 181.574 206.085 181.671C206.745 181.825 207.358 182.138 207.87 182.584C208.21 182.873 208.527 183.188 208.818 183.525C209.019 183.761 209.116 183.899 209.102 183.92C209.088 183.941 208.583 183.449 207.718 182.785C207.218 182.399 206.639 182.129 206.022 181.996C205.656 181.915 205.275 181.926 204.913 182.026C204.551 182.126 204.219 182.313 203.946 182.57C203.725 182.849 203.614 183.2 203.636 183.555C203.657 183.91 203.81 184.245 204.064 184.494C204.514 184.965 205.296 184.833 205.815 185.186C206.334 185.539 206.444 186.01 206.673 186.21C206.901 186.411 207.081 186.494 207.067 186.522Z" fill="#EB996E"/>
<path d="M203.123 185.29C203.123 185.345 202.763 185.325 202.258 185.553C201.607 185.934 200.924 186.258 200.216 186.522C199.453 186.611 198.68 186.55 197.94 186.342C197.633 186.316 197.328 186.272 197.026 186.21C197.319 186.07 197.649 186.029 197.967 186.093C198.683 186.215 199.411 186.241 200.133 186.169C200.922 185.968 201.593 185.477 202.209 185.318C202.825 185.158 203.137 185.248 203.123 185.29Z" fill="#EB996E"/>
<path d="M203.282 188.266C203.154 188.383 203.006 188.476 202.846 188.542C202.43 188.759 201.991 188.928 201.538 189.048C200.035 189.411 198.478 189.5 196.943 189.31C196.057 189.2 195.213 189.061 194.445 188.951C193.747 188.892 193.06 188.738 192.404 188.494C192.14 188.372 191.926 188.165 191.795 187.906C191.701 187.71 191.67 187.49 191.705 187.276C191.781 186.909 192.009 186.826 192.009 186.847C192.009 186.868 191.864 186.985 191.843 187.29C191.84 187.505 191.905 187.716 192.029 187.891C192.154 188.067 192.331 188.198 192.535 188.266C193.18 188.456 193.844 188.575 194.514 188.618L196.999 188.951C198.497 189.135 200.014 189.083 201.497 188.798C202.611 188.549 203.254 188.224 203.282 188.266Z" fill="#EB996E"/>
<path d="M238.74 186.487C238.291 185.471 237.777 184.484 237.204 183.532C236.532 182.646 235.807 181.803 235.031 181.007C236.051 181.542 236.905 182.346 237.501 183.332C238.198 184.249 238.627 185.341 238.74 186.487Z" fill="#EB996E"/>
<path d="M62.4253 268.205L61.5188 314.403L72.7084 315.6L80.3966 268.565L74.3554 260.967L62.4253 268.205Z" fill="#843A08"/>
<path d="M74.0786 313.317V314.071C74.0786 314.071 86.8114 319.358 86.9152 321.78L61.5257 321.358V312.902C63.476 313.834 65.5982 314.352 67.7587 314.423C69.9191 314.495 72.0709 314.118 74.0786 313.317Z" fill="#2B478B"/>
<path d="M61.5188 321.358L61.6364 319.33L85.9326 320.479C85.9326 320.479 87.0536 320.991 86.9083 321.78L61.5188 321.358Z" fill="#263238"/>
<path d="M57.8028 127.065C57.6159 124.934 56.3426 122.781 54.3428 122.138L51.9969 123.48C50.7784 124.089 49.8212 125.118 49.3023 126.377C48.7833 127.636 48.7376 129.041 49.1735 130.331C47.6802 131.267 46.6175 132.756 46.2169 134.472C45.8164 136.188 46.1105 137.993 47.0352 139.493C45.5128 140.185 44.8624 142.054 44.89 143.728C44.9177 145.403 45.4575 147.029 45.582 148.697C45.6997 149.984 45.582 151.292 45.8173 152.565C45.8951 153.21 46.1302 153.825 46.5019 154.357C46.8736 154.889 47.3704 155.322 47.9487 155.617C48.5977 155.823 49.2933 155.834 49.9481 155.647C50.603 155.459 51.1881 155.083 51.6301 154.565C52.4871 153.501 53.0225 152.214 53.1733 150.856C53.803 146.988 52.9795 142.953 53.9552 139.154C54.6025 137.119 55.4196 135.143 56.398 133.245C57.263 131.293 57.9827 129.189 57.8028 127.065Z" fill="#263238"/>
<path d="M56.6748 126.788C55.3412 126.778 54.0346 126.411 52.8912 125.725C51.7477 125.038 50.8091 124.058 50.1732 122.886C49.5373 121.713 49.2272 120.392 49.2753 119.059C49.3235 117.727 49.728 116.431 50.4468 115.308C50.6365 114.95 50.9344 114.662 51.2979 114.484C52.0799 114.173 52.9034 114.81 53.5054 115.405L57.8858 119.667" fill="#263238"/>
<path d="M56.7993 121.321C53.5123 119.764 50.9243 116.076 49.9693 112.568C49.0143 109.059 50.1146 101.952 51.0557 98.4439C52.2114 94.1674 53.9898 99.6688 55.443 100.119C55.867 100.281 56.2457 100.543 56.5468 100.883C56.848 101.222 57.0628 101.63 57.173 102.07C57.3887 102.955 57.4565 103.869 57.3737 104.776C57.1799 110.312 56.9885 115.827 56.7993 121.321Z" fill="#263238"/>
<path d="M65.2072 86.4583C70.7016 83.5035 75.1166 85.2473 77.2618 86.922C79.407 88.5966 80.7218 91.157 81.4899 93.7659C82.258 96.3747 82.6179 99.0873 83.2545 101.738C83.6493 103.261 83.9337 104.81 84.1057 106.374C84.4171 108.637 84.3133 112.685 83.1576 114.678C82.1712 116.58 80.7484 118.221 79.0056 119.467C78.3136 119.903 77.5594 120.359 76.8051 120.117C76.2764 119.883 75.839 119.482 75.5595 118.975C69.5861 110.445 64.9017 101.081 61.6572 91.1847" fill="#263238"/>
<path d="M59.0829 92.8111L68.6049 88.9705L71.103 89.2473C76.7082 89.2473 80.6041 95.4061 80.6664 99.9525C80.7287 104.997 80.6111 111.163 79.8291 114.886C78.2513 122.373 72.4178 123.045 72.4178 123.045C72.4178 123.045 72.487 125.086 72.5423 127.598C72.5688 128.668 72.378 129.732 71.9815 130.726C71.5851 131.72 70.9911 132.624 70.2356 133.382C69.4801 134.14 68.5788 134.737 67.5861 135.137C66.5933 135.536 65.5298 135.731 64.4598 135.708C62.3903 135.668 60.4187 134.82 58.9674 133.344C57.5161 131.868 56.7006 129.882 56.6955 127.812L56.571 95.3784C56.5925 94.7137 56.8625 94.0813 57.3275 93.606C57.7926 93.1307 58.4189 92.8471 59.0829 92.8111Z" fill="#843A08"/>
<path d="M78.2375 104.949C78.2267 105.201 78.118 105.439 77.9345 105.612C77.751 105.785 77.5072 105.88 77.2549 105.876C77.1314 105.88 77.0084 105.859 76.8931 105.814C76.7779 105.77 76.6727 105.703 76.5837 105.617C76.4947 105.531 76.4238 105.428 76.3751 105.315C76.3263 105.201 76.3008 105.079 76.2999 104.956C76.3107 104.703 76.4192 104.464 76.6025 104.29C76.7858 104.116 77.0296 104.019 77.2826 104.021C77.4064 104.019 77.5295 104.041 77.6448 104.086C77.7601 104.131 77.8653 104.199 77.9541 104.285C78.043 104.372 78.1138 104.475 78.1625 104.589C78.2111 104.702 78.2366 104.825 78.2375 104.949Z" fill="#263238"/>
<path d="M78.6734 102.527C78.5489 102.644 77.843 102.07 76.805 102.021C75.767 101.973 74.9712 102.45 74.8605 102.319C74.7498 102.187 74.9436 102.035 75.2896 101.814C75.7543 101.522 76.2985 101.381 76.8466 101.412C77.3898 101.441 77.9104 101.639 78.3344 101.98C78.6388 102.243 78.7357 102.471 78.6734 102.527Z" fill="#263238"/>
<path d="M72.314 110.678C72.8729 110.537 73.4467 110.462 74.0232 110.457C74.2862 110.457 74.5422 110.409 74.5976 110.229C74.6309 109.953 74.5828 109.674 74.4592 109.426C74.2447 108.775 74.0163 108.083 73.7672 107.35C72.8191 104.409 72.1479 102.001 72.2655 101.966C72.3832 101.932 73.2482 104.277 74.1962 107.218C74.4246 107.91 74.6391 108.602 74.8467 109.294C74.9995 109.621 75.0314 109.991 74.9367 110.339C74.8928 110.431 74.8291 110.513 74.7501 110.577C74.6712 110.642 74.5789 110.688 74.4799 110.713C74.3298 110.744 74.1763 110.755 74.0232 110.748C73.4529 110.8 72.8782 110.777 72.314 110.678Z" fill="#84644E"/>
<path d="M72.4178 123.045C68.8617 122.918 65.4101 121.809 62.446 119.841C62.446 119.841 64.875 125.204 72.4662 124.878L72.4178 123.045Z" fill="#543723"/>
<path d="M71.6497 112.934C71.4726 112.651 71.2238 112.42 70.9284 112.265C70.633 112.109 70.3017 112.034 69.9681 112.049C69.7337 112.043 69.5014 112.093 69.2898 112.194C69.0782 112.295 68.8934 112.444 68.7502 112.63C68.6045 112.835 68.5201 113.077 68.5066 113.328C68.4931 113.579 68.5512 113.829 68.6741 114.048C68.8305 114.269 69.0482 114.439 69.3004 114.538C69.5525 114.636 69.828 114.659 70.0927 114.602C70.6053 114.462 71.0788 114.207 71.4767 113.855C71.6005 113.77 71.7063 113.662 71.7881 113.536C71.8211 113.325 71.7715 113.11 71.6497 112.934Z" fill="#B84D4D"/>
<path d="M69.2 111.246C69.3661 111.246 69.3176 112.374 70.2449 113.225C71.1722 114.076 72.3763 114.014 72.3832 114.173C72.3901 114.332 72.0995 114.381 71.5943 114.367C70.93 114.343 70.2953 114.086 69.802 113.64C69.3311 113.213 69.0434 112.621 68.9993 111.986C68.9993 111.509 69.1377 111.239 69.2 111.246Z" fill="#84593C"/>
<path d="M78.5282 99.6481C78.3344 99.8764 77.6286 99.5996 76.7636 99.5443C75.8986 99.4889 75.165 99.6204 75.0059 99.3643C74.9367 99.2398 75.0682 99.0114 75.3934 98.8038C75.8356 98.556 76.3415 98.4453 76.8468 98.486C77.352 98.5267 77.8338 98.7168 78.2306 99.0322C78.5282 99.2536 78.6112 99.5027 78.5282 99.6481Z" fill="#263238"/>
<path d="M66.7296 104.886C66.722 105.139 66.8144 105.385 66.9867 105.57C67.1589 105.755 67.3972 105.865 67.6499 105.876C67.7729 105.887 67.8968 105.874 68.0146 105.837C68.1323 105.8 68.2414 105.739 68.3355 105.659C68.4296 105.579 68.5068 105.481 68.5626 105.371C68.6183 105.261 68.6515 105.141 68.6602 105.018C68.666 104.765 68.573 104.521 68.4011 104.336C68.2292 104.151 67.992 104.041 67.7399 104.028C67.6167 104.016 67.4924 104.029 67.3743 104.065C67.2561 104.102 67.1466 104.162 67.0523 104.243C66.958 104.323 66.8808 104.421 66.8253 104.532C66.7699 104.642 66.7373 104.763 66.7296 104.886Z" fill="#263238"/>
<path d="M64.7781 102.416C64.8958 102.547 65.6362 102.015 66.6811 102.028C67.726 102.042 68.4803 102.575 68.591 102.451C68.7018 102.326 68.5288 102.167 68.2035 101.918C67.7562 101.596 67.2184 101.424 66.6673 101.426C66.1259 101.418 65.5956 101.58 65.1518 101.89C64.8266 102.118 64.7158 102.347 64.7781 102.416Z" fill="#263238"/>
<path d="M65.2279 99.1012C65.4078 99.3365 66.1344 99.1012 66.9994 99.1012C67.8644 99.1012 68.591 99.2811 68.764 99.032C68.8402 98.9143 68.7225 98.6791 68.4111 98.4507C67.9882 98.168 67.4871 98.0251 66.9787 98.0424C66.4703 98.0468 65.9755 98.2061 65.5601 98.4991C65.2556 98.7413 65.1518 98.9559 65.2279 99.1012Z" fill="#263238"/>
<path d="M67.5115 88.1677C65.0964 87.192 61.4081 87.5242 59.339 89.095C57.2941 90.7445 55.9292 93.0901 55.5053 95.6829C55.0278 98.2433 55.6645 102.029 56.3357 104.54C60.2386 99.5096 64.2591 93.7107 68.0236 88.576L67.5115 88.1677Z" fill="#263238"/>
<path d="M69.3522 85.8842C82.5833 84.0158 81.3584 104.021 81.3584 104.021C80.0367 96.6517 69.7813 88.9428 69.7813 88.9428L67.7053 88.5899L69.3522 85.8842Z" fill="#263238"/>
<path d="M57.3945 108.132C57.3945 107.571 56.8408 106.215 56.2872 106.097C54.8133 105.793 52.1352 105.779 51.9276 109.557C51.6301 114.699 56.8547 113.931 56.8755 113.785C56.8962 113.64 57.3045 110.076 57.3945 108.132Z" fill="#843A08"/>
<path d="M56.1004 111.73C56.1004 111.73 56.0035 111.793 55.8513 111.855C55.6296 111.946 55.381 111.946 55.1593 111.855C54.8346 111.623 54.5784 111.308 54.4177 110.942C54.2569 110.577 54.1976 110.175 54.2459 109.779C54.2584 109.338 54.3695 108.905 54.5711 108.512C54.6269 108.357 54.7187 108.217 54.8389 108.104C54.9592 107.991 55.1046 107.908 55.2631 107.862C55.3674 107.84 55.4762 107.856 55.57 107.906C55.6638 107.957 55.7365 108.039 55.7752 108.139C55.8375 108.284 55.7752 108.388 55.8236 108.395C55.8721 108.402 55.9413 108.319 55.9136 108.104C55.8889 107.974 55.8235 107.855 55.7267 107.765C55.5914 107.652 55.4182 107.595 55.2423 107.606C55.0282 107.636 54.8253 107.72 54.6532 107.851C54.4811 107.982 54.3456 108.155 54.2597 108.353C54.018 108.776 53.8826 109.251 53.8653 109.737C53.8653 110.775 54.3151 111.772 55.0486 112.028C55.1834 112.078 55.328 112.096 55.4709 112.08C55.6138 112.064 55.7512 112.016 55.8721 111.938C56.052 111.855 56.1143 111.744 56.1004 111.73Z" fill="#543723"/>
<path d="M51.3464 95.8281C52.7745 92.3139 55.2451 89.3216 58.4256 87.2542C60.0543 86.0378 61.9541 85.2352 63.9616 84.9153C64.9653 84.7604 65.9916 84.8479 66.9547 85.1706C67.9177 85.4932 68.7896 86.0415 69.4976 86.7698L69.8643 87.1435C67.5946 92.1882 65.9891 96.4578 63.062 101.15C61.9824 102.873 61.5188 108.762 61.2628 110.761C60.377 117.647 56.6056 120.595 56.6056 120.595C48.44 120.602 50.0316 99.3573 51.3464 95.8281Z" fill="#263238"/>
<path d="M55.36 119.785C55.0003 119.762 54.6514 119.653 54.3427 119.467C53.5598 119.085 52.8556 118.559 52.2667 117.917C51.6672 117.285 51.1971 116.542 50.8827 115.73C50.7253 115.407 50.647 115.051 50.6544 114.692C51.135 115.762 51.7538 116.765 52.4951 117.675C53.35 118.505 54.3138 119.215 55.36 119.785Z" fill="#455A64"/>
<path d="M54.3566 126.484C53.5884 126.433 52.8517 126.159 52.2371 125.696C51.6224 125.232 51.1565 124.599 50.8966 123.875C51.3914 124.413 51.9133 124.926 52.4605 125.411C53.071 125.805 53.7041 126.163 54.3566 126.484Z" fill="#455A64"/>
<path d="M50.9173 132.802C50.8412 132.864 50.3707 132.345 49.8655 131.646C49.3603 130.947 49.0282 130.331 49.1112 130.262C49.1943 130.193 49.6579 130.719 50.1631 131.418C50.6682 132.117 51.0004 132.746 50.9173 132.802Z" fill="#455A64"/>
<path d="M48.267 140.594C48.1909 140.656 47.831 140.365 47.4573 139.936C47.0837 139.507 46.8415 139.113 46.9176 139.043C46.9937 138.974 47.3535 139.272 47.7272 139.701C48.1009 140.13 48.3431 140.524 48.267 140.594Z" fill="#455A64"/>
<path d="M49.824 107.474C50.135 107.262 50.4611 107.072 50.7997 106.907C51.118 106.734 51.4917 106.526 51.9415 106.215C52.3913 105.904 52.8965 105.668 53.4224 105.295C54.6878 104.466 55.899 103.558 57.0485 102.575C59.8689 100.165 62.2887 97.3225 64.2176 94.1535C65.0048 92.8613 65.7097 91.5208 66.3282 90.1399C66.6119 89.5586 66.8057 89.0119 67.0202 88.5344C67.2347 88.0569 67.3662 87.6417 67.4838 87.2957C67.5908 86.9345 67.7274 86.5827 67.8921 86.2439C67.8289 86.6174 67.7363 86.9853 67.6153 87.3442C67.5009 87.7707 67.3646 88.1911 67.207 88.6036C67.034 89.088 66.8541 89.6485 66.5842 90.2437C65.9882 91.6513 65.2945 93.0155 64.5082 94.3265C63.5402 95.9256 62.4505 97.4479 61.2489 98.8798C60.0267 100.298 58.6964 101.619 57.2699 102.831C56.0993 103.808 54.8623 104.703 53.5677 105.509C53.0279 105.869 52.502 106.139 52.0522 106.395C51.6024 106.651 51.2011 106.845 50.8689 106.997C50.5342 107.184 50.1847 107.344 49.824 107.474Z" fill="#455A64"/>
<path d="M62.5637 101.309C62.5637 101.309 62.4461 101.503 62.19 101.8C61.934 102.098 61.498 102.492 61.0136 103.004C58.3054 105.564 55.0626 107.49 51.5194 108.644C50.9875 108.821 50.4471 108.971 49.9001 109.094C49.7023 109.153 49.4975 109.185 49.2911 109.191C49.992 108.893 50.708 108.632 51.4363 108.409C53.1524 107.768 54.8101 106.981 56.3911 106.056C57.9669 105.12 59.458 104.048 60.8475 102.852C61.9063 101.89 62.5222 101.267 62.5637 101.309Z" fill="#455A64"/>
<path d="M81.7667 107.883C81.8141 107.503 81.8858 107.126 81.9812 106.755C82.1789 105.737 82.2923 104.705 82.3203 103.669C82.4556 100.237 81.6028 96.8386 79.8634 93.8773C78.1239 90.9161 75.5709 88.5165 72.5077 86.9637C71.5877 86.4837 70.6295 86.081 69.6429 85.7596C69.2737 85.6593 68.9108 85.5369 68.5564 85.3928C68.5564 85.3928 68.6602 85.3928 68.854 85.4343C69.0477 85.4759 69.3245 85.5174 69.6844 85.6212C70.6962 85.8967 71.6788 86.2698 72.6185 86.7353C75.7678 88.2573 78.3949 90.6792 80.1675 93.6946C81.94 96.71 82.7783 100.183 82.5763 103.675C82.525 104.723 82.372 105.764 82.1196 106.783C82.0366 107.142 81.9328 107.419 81.8774 107.606C81.8537 107.703 81.8164 107.796 81.7667 107.883Z" fill="#455A64"/>
<path d="M143.092 154.662C142.919 154.887 142.807 155.153 142.767 155.435C142.727 155.716 142.76 156.003 142.863 156.267C143.098 156.706 143.453 157.069 143.888 157.312C144.586 156.6 145.161 155.777 145.59 154.876" fill="#543723"/>
<path d="M140.088 153.783C139.865 153.96 139.691 154.19 139.582 154.453C139.473 154.716 139.433 155.002 139.466 155.285C139.582 155.769 139.837 156.209 140.199 156.551C141.052 156.035 141.814 155.383 142.455 154.621" fill="#543723"/>
<path d="M71.8434 130.968C71.8434 130.968 94.6033 148.877 98.7069 149.465C102.81 150.053 122.006 147.721 129.888 147.479L131.002 154.087C131.002 154.087 109.253 161.471 101.343 161.762C93.4338 162.052 88.8874 159.921 88.8874 159.921L74.0993 144.773L71.8434 130.968Z" fill="#843A08"/>
<path d="M129.404 147.548C129.404 147.548 139.569 146.095 141.168 146.891C142.766 147.687 147.285 151.513 147.285 151.513C147.285 151.513 148.801 155.769 147.846 155.97C146.891 156.171 145.908 154.586 145.908 154.586L144.586 152.24L138.905 150.856L129.487 151.693L129.404 147.548Z" fill="#843A08"/>
<path d="M131.002 154.088C131.148 154.268 134.781 156.018 136.628 155.97C138.476 155.921 140.587 154.475 142.164 154.697C143.742 154.918 147.05 155.174 147.451 154.6C147.678 154.366 147.805 154.053 147.805 153.728C147.805 153.402 147.678 153.09 147.451 152.856C146.912 152.344 144.247 151.839 142.324 151.32C141.294 151.084 140.323 150.639 139.473 150.012L128.283 151.243L127.646 154.703L131.002 154.088Z" fill="#843A08"/>
<path d="M135.84 149.894C136.033 149.854 136.231 149.84 136.428 149.853C136.961 149.868 137.491 149.933 138.012 150.046C139.708 150.476 141.376 151.005 143.009 151.631C143.909 151.933 144.836 152.15 145.777 152.282C146.227 152.317 146.657 152.483 147.015 152.759C147.162 152.901 147.275 153.075 147.347 153.266C147.419 153.457 147.447 153.662 147.431 153.866C147.415 154.032 147.365 154.193 147.285 154.339C147.206 154.485 147.097 154.614 146.967 154.717C146.766 154.868 146.526 154.957 146.275 154.973C145.874 154.973 145.687 154.849 145.694 154.835C145.882 154.852 146.072 154.852 146.261 154.835C146.5 154.794 146.718 154.674 146.881 154.495C147.044 154.316 147.143 154.087 147.161 153.845C147.17 153.684 147.142 153.523 147.08 153.375C147.018 153.226 146.922 153.094 146.801 152.987C146.481 152.763 146.105 152.631 145.714 152.607C144.751 152.494 143.803 152.28 142.884 151.97C140.933 151.32 139.237 150.586 137.943 150.295C136.649 150.005 135.84 149.963 135.84 149.894Z" fill="#84644E"/>
<path d="M143.168 152.005C142.55 151.893 141.978 151.604 141.521 151.174C140.711 150.538 140.255 149.79 140.331 149.79C140.407 149.79 140.974 150.309 141.715 150.911C142.455 151.513 143.244 151.908 143.168 152.005Z" fill="#84644E"/>
<path d="M52.2322 266.69L31.6036 275.873L34.0879 286.889C34.0879 286.889 60.0241 279.153 68.508 277.437C76.9919 275.72 90.742 273.534 94.6241 265.299L52.2322 266.69Z" fill="#843A08"/>
<path d="M36.067 287.09L35.375 287.284C35.375 287.284 33.7142 300.805 31.4306 301.553L25.1057 277.264L33.1606 275.015C32.7859 277.119 32.8507 279.278 33.3509 281.356C33.8511 283.434 34.7758 285.387 36.067 287.09Z" fill="#2B478B"/>
<path d="M25.0781 277.264L27.0433 276.834L32.3856 300.273C32.3856 300.273 32.1987 301.477 31.4029 301.553L25.0781 277.264Z" fill="#263238"/>
<path d="M94.548 265.617C94.4984 265.818 94.4265 266.013 94.3334 266.198C94.0673 266.73 93.7347 267.225 93.3439 267.672C91.8471 269.259 90.1322 270.624 88.2508 271.728C86.9543 272.496 85.5871 273.138 84.168 273.644C82.5372 274.2 80.876 274.662 79.1925 275.028C75.6771 275.914 71.8158 276.924 67.7676 277.997L47.0076 283.471L40.7242 285.104L39.008 285.519C38.8088 285.576 38.6051 285.615 38.3991 285.637C38.5903 285.558 38.7868 285.493 38.9873 285.443L40.6896 284.972L46.9591 283.256C52.2598 281.817 59.5743 279.796 67.6776 277.679C71.7258 276.606 75.5872 275.603 79.1164 274.731C80.79 274.361 82.4418 273.899 84.0642 273.347C87.5211 272.145 90.6574 270.169 93.2332 267.569C93.7678 266.989 94.2112 266.331 94.548 265.617Z" fill="#84644E"/>
<path d="M61.7817 177.152L62.2523 181.214C62.2523 181.214 55.1039 194.715 55.1039 201.974C55.1039 209.233 51.81 266.89 51.81 266.89C51.81 266.89 90.562 269.098 94.6517 265.313L98.7484 261.534L112.588 257.756L90.9634 178.868V174.64L61.7817 177.152Z" fill="#FFE8D8"/>
<path d="M88.2923 196.694C88.3145 196.747 88.3285 196.803 88.3338 196.86L88.4099 197.331C88.4722 197.774 88.5552 198.383 88.6659 199.151C88.8943 200.763 89.2126 203.047 89.6071 205.849C90.4098 211.503 91.6139 219.295 93.1709 227.869C94.7279 236.443 96.3333 244.165 97.5651 249.743C98.181 252.511 98.6792 254.753 99.039 256.345L99.4335 258.144C99.4681 258.331 99.5027 258.483 99.5234 258.607C99.5325 258.662 99.5325 258.718 99.5234 258.773C99.4991 258.725 99.4805 258.674 99.4681 258.621L99.3435 258.158C99.2259 257.722 99.0736 257.126 98.8799 256.379C98.4854 254.829 97.9388 252.587 97.2952 249.798C96.0012 244.262 94.3542 236.512 92.7903 227.931C91.2263 219.35 90.0776 211.544 89.3303 205.884C88.9566 203.054 88.6798 200.756 88.5068 199.165C88.4237 198.396 88.3615 197.781 88.313 197.338C88.313 197.144 88.313 196.992 88.2715 196.86C88.2697 196.804 88.2768 196.748 88.2923 196.694Z" fill="#FFCBA7"/>
<path d="M60.46 203.918C60.5296 204.065 60.5852 204.218 60.6261 204.375C60.723 204.717 60.8545 205.159 61.0205 205.704C61.3665 206.901 61.8509 208.555 62.4461 210.589C63.6709 214.707 65.4424 220.367 67.6015 226.554C69.7605 232.74 71.9195 238.276 73.5319 242.255C74.3346 244.214 74.992 245.812 75.4626 246.968L75.9816 248.248C76.0441 248.397 76.0973 248.549 76.1407 248.705C76.0475 248.571 75.9708 248.427 75.9124 248.276L75.3311 247.023C74.8329 245.93 74.1339 244.338 73.2966 242.352C71.622 238.394 69.4353 232.872 67.2624 226.678C65.0895 220.485 63.3664 214.797 62.2039 210.659C61.6226 208.583 61.1728 206.908 60.8821 205.738C60.7437 205.185 60.6399 204.742 60.5569 204.396C60.5113 204.24 60.4789 204.08 60.46 203.918Z" fill="#FFCBA7"/>
<path d="M72.4662 128.061C72.2794 127.625 86.2093 138.732 87.9601 144.143C89.7109 149.555 90.0361 165.166 90.0361 165.166L91.0118 175.187L63.1727 177.152L62.4253 175.187L60.3493 169.602L57.5052 161.167C57.5052 161.167 50.6475 150.517 49.2842 145.943C47.5957 140.248 50.3983 134.414 50.3983 134.414L56.6886 127.328L72.4662 128.061Z" fill="#FFE8D8"/>
<path d="M56.6955 127.812C56.6955 127.812 55.1524 124.954 56.1004 123.702C56.8616 122.712 70.2518 123.958 72.9852 124.532C74.5907 124.878 72.9852 128.456 72.9852 128.456L56.6955 127.812Z" fill="#FFE8D8"/>
<g opacity="0.3">
<path d="M64.7158 141.306C65.8853 144.33 64.2314 153.707 63.9823 155.935C63.6641 158.161 63.15 160.354 62.4461 162.489C62.1416 163.492 61.8509 164.641 62.4461 165.519C63.3595 166.903 65.7123 166.53 66.8541 167.775C64.7147 168.768 62.3123 169.045 60.0033 168.564C59.5938 168.516 59.2118 168.333 58.9169 168.045C58.737 167.783 58.623 167.482 58.5847 167.166C57.8342 163.892 57.7238 160.504 58.2595 157.188C58.8615 153.901 62.0032 146.012 64.6466 143.936" fill="#FF8733"/>
</g>
<path d="M65.2071 145.452C64.9697 146.598 64.514 147.688 63.8647 148.662C63.3168 149.697 62.566 150.61 61.6572 151.347C61.5811 151.278 62.5845 150.102 63.5602 148.476C64.5359 146.849 65.1033 145.41 65.2071 145.452Z" fill="#FFCBA7"/>
<path d="M72.9852 128.11C72.784 128.204 72.569 128.264 72.3486 128.29C71.9334 128.38 71.3313 128.484 70.577 128.587C66.6558 129.107 62.673 128.914 58.82 128.02C58.0795 127.847 57.4913 127.681 57.09 127.549C56.8734 127.501 56.6657 127.419 56.4741 127.307C56.4741 127.252 57.3945 127.487 58.8753 127.771C60.799 128.137 62.746 128.369 64.702 128.463C66.661 128.554 68.624 128.51 70.577 128.331C72.051 128.2 72.9714 128.055 72.9852 128.11Z" fill="#FFCBA7"/>
<path d="M82.7839 155.008C82.7217 155.008 82.9639 154.24 83.1507 153.001C83.6403 149.754 83.052 146.436 81.4761 143.555C80.874 142.455 80.3896 141.839 80.4381 141.798C80.4865 141.756 80.5972 141.929 80.8256 142.199C81.1494 142.585 81.441 142.997 81.6975 143.431C83.4335 146.317 84.0422 149.742 83.4067 153.05C83.3112 153.544 83.177 154.03 83.0054 154.503C82.9601 154.682 82.8853 154.853 82.7839 155.008Z" fill="#FFCBA7"/>
<g opacity="0.3">
<path d="M64.356 128.587C62.0286 128.428 59.7158 128.099 57.436 127.605C60.6871 129.374 64.3969 130.119 68.0789 129.743C69.4214 129.57 70.8469 129.196 71.7189 128.179C69.6775 128.975 66.5427 128.781 64.356 128.587Z" fill="#FF8733"/>
</g>
<g opacity="0.3">
<path d="M80.0505 158.191C81.2937 156.877 82.2297 155.304 82.791 153.584C83.3522 151.864 83.5247 150.041 83.296 148.247C83.6277 149.423 83.8022 150.638 83.815 151.859C83.9628 153.265 83.618 154.679 82.8393 155.859C81.9881 157.029 81.4968 157.734 80.0713 158.191" fill="#FF8733"/>
</g>
<path d="M60.6607 135.224C59.9566 134.623 59.1392 134.17 58.2569 133.891C57.3746 133.612 56.4452 133.513 55.5239 133.599C54.6026 133.686 53.7079 133.956 52.8929 134.394C52.0779 134.833 51.3591 135.43 50.779 136.151C50.6821 136.276 50.5852 136.414 50.4952 136.546C49.049 138.711 45.063 172.446 46.6546 176.488C48.2462 180.529 50.5506 180.245 50.5506 180.245C50.5506 180.245 60.986 180.128 68.4942 178.391C76.0024 176.654 84.3686 173.817 84.3686 173.817L82.9846 165.644C82.9846 165.644 64.6051 168.08 59.5535 167.506L61.4842 151.078C61.4842 151.078 65.8784 145.728 64.619 140.822C64.01 138.49 62.28 136.58 60.6607 135.224Z" fill="#843A08"/>
<path d="M88.7766 160.627L92.9286 157.859L95.8973 155.354C95.9912 155.808 95.9899 156.277 95.8934 156.731C95.7969 157.185 95.6074 157.614 95.3368 157.991C94.4165 159.375 92.8664 161.451 92.8664 161.451L88.7766 160.627Z" fill="#843A08"/>
<path d="M94.9285 158.952C94.8939 158.952 95.1638 158.634 95.4545 158.039C95.8391 157.213 95.9318 156.281 95.7174 155.395L95.9665 155.465L93.0117 157.99L92.7902 158.136L90.1883 159.873C89.4879 160.358 88.7626 160.806 88.0155 161.215C87.3522 161.628 86.6581 161.989 85.9395 162.295C86.557 161.81 87.2118 161.375 87.8978 160.994C88.5275 160.627 89.2334 160.136 90.0222 159.61L92.6034 157.859L92.8249 157.707L95.8074 155.222L96.0081 155.063L96.0565 155.299C96.2717 156.255 96.1289 157.257 95.6551 158.115C95.5231 158.347 95.3653 158.562 95.1846 158.759C95.0185 158.897 94.9424 158.966 94.9285 158.952Z" fill="#84644E"/>
<path d="M87.282 167.588C87.4204 167.312 98.2709 155.222 100.949 152.24C101.119 152.05 101.347 151.921 101.597 151.875C101.848 151.829 102.107 151.867 102.333 151.984C102.492 152.063 102.631 152.178 102.739 152.32C102.847 152.462 102.92 152.626 102.953 152.801C102.987 152.976 102.98 153.156 102.932 153.328C102.884 153.499 102.798 153.657 102.679 153.79L88.7836 169.242L87.282 167.588Z" fill="#263238"/>
<path d="M98.8314 162.309C99.2812 161.707 98.6169 160.523 98.001 160.198C97.3851 159.873 94.9285 161.229 94.9285 161.229L94.0428 161.312C94.0428 161.312 89.2749 160.343 89.1157 160.426C87.8751 160.961 86.7114 161.659 85.6557 162.502C85.1751 162.941 84.7602 163.447 84.424 164.004C84.0641 164.565 83.1715 165.478 81.0955 165.976L83.1161 174.19C83.1161 174.19 87.5518 173.145 87.884 173.138C88.2161 173.132 91.9322 172.841 92.4235 172.758C93.915 172.384 95.3233 171.734 96.5755 170.841C98.1671 169.658 97.4267 168.654 97.4267 168.654C99.0667 167.54 97.7865 166.433 97.7865 166.433L98.2501 165.644C98.9421 164.392 97.5581 163.7 97.5581 163.7C98.0184 163.27 98.4441 162.805 98.8314 162.309Z" fill="#843A08"/>
<path d="M95.5375 164.855C95.5375 164.765 96.0288 164.53 96.617 164.163C97.2052 163.796 97.655 163.471 97.7242 163.513C97.7934 163.554 97.4267 164.059 96.79 164.447C96.1534 164.834 95.5652 164.945 95.5375 164.855Z" fill="#84644E"/>
<path d="M96.9284 167.09C96.873 167.014 97.0391 166.779 97.309 166.564C97.5789 166.35 97.8418 166.225 97.8972 166.295C97.9526 166.364 97.7865 166.599 97.5166 166.82C97.2467 167.042 96.9907 167.16 96.9284 167.09Z" fill="#84644E"/>
<path d="M96.444 168.91C96.444 168.813 96.707 168.717 97.0322 168.592C97.3575 168.467 97.6274 168.364 97.6827 168.433C97.7381 168.502 97.5236 168.758 97.1499 168.903C96.7762 169.049 96.444 169 96.444 168.91Z" fill="#84644E"/>
<path d="M94.9285 161.236C94.1139 161.469 93.2708 161.588 92.4235 161.589C91.5862 161.698 90.7419 161.744 89.8977 161.727C89.8977 161.616 90.9911 161.326 92.3958 161.229C93.2359 161.108 94.0891 161.111 94.9285 161.236Z" fill="#84644E"/>
<path d="M59.7888 167.353C59.2748 168.215 58.6566 169.01 57.9481 169.72C57.3324 170.515 56.6212 171.23 55.8305 171.851C56.3552 170.995 56.975 170.201 57.6782 169.485C58.2969 168.695 59.0052 167.98 59.7888 167.353Z" fill="#84644E"/>
<path d="M64.4529 145.043C64.4529 145.043 64.5013 144.676 64.5636 144.019C64.6622 143.095 64.6179 142.161 64.4321 141.251C64.068 139.767 63.3744 138.383 62.4029 137.203C61.4314 136.023 60.2069 135.077 58.82 134.435C57.3035 133.72 55.5716 133.608 53.976 134.123C52.6543 134.5 51.5243 135.362 50.8135 136.539C50.3521 137.347 50.0183 138.223 49.824 139.134C49.7633 139.472 49.6824 139.808 49.5818 140.137C49.5818 140.137 49.5818 140.047 49.5818 139.867C49.5818 139.687 49.6233 139.438 49.6856 139.106C49.809 138.168 50.0898 137.258 50.516 136.414C50.8401 135.828 51.2721 135.309 51.7893 134.885C52.3875 134.407 53.0674 134.041 53.7961 133.805C55.4783 133.242 57.3132 133.351 58.9169 134.11C60.3591 134.759 61.6307 135.734 62.6311 136.959C63.6316 138.184 64.3334 139.625 64.6812 141.168C64.8487 142.106 64.8487 143.067 64.6812 144.005C64.6429 144.262 64.5874 144.517 64.5151 144.766C64.5111 144.862 64.49 144.955 64.4529 145.043Z" fill="#FFCBA7"/>
<path d="M115.779 112.339H87.4065C86.8592 112.35 86.3374 112.572 85.9503 112.959C85.5633 113.346 85.3411 113.868 85.3305 114.415V141.915C85.3322 142.469 85.5504 142.999 85.9384 143.394C86.3264 143.788 86.8533 144.015 87.4065 144.026H97.8557L101.932 149.804L105.475 144.026H115.779C116.057 144.031 116.334 143.979 116.592 143.875C116.85 143.771 117.084 143.615 117.281 143.418C117.478 143.221 117.634 142.987 117.738 142.729C117.842 142.47 117.894 142.194 117.889 141.915V114.45C117.894 114.172 117.842 113.895 117.738 113.637C117.634 113.379 117.478 113.144 117.281 112.947C117.084 112.75 116.85 112.595 116.592 112.491C116.334 112.386 116.057 112.335 115.779 112.339Z" fill="#FAFAFA"/>
<path d="M115.779 112.339C116.065 112.317 116.352 112.365 116.616 112.478C116.939 112.616 117.225 112.827 117.453 113.094C117.763 113.471 117.936 113.941 117.944 114.429C117.944 116.581 117.944 119.702 117.993 123.619C118.041 127.536 117.993 132.297 118.034 137.673C118.034 139.057 118.034 140.441 118.034 141.825C118.052 142.211 117.971 142.594 117.801 142.94C117.63 143.286 117.375 143.584 117.059 143.805C116.731 144.032 116.349 144.168 115.952 144.199C115.557 144.199 115.204 144.199 114.83 144.199H105.475L105.62 144.116L102.084 149.901L101.945 150.129L101.793 149.915L97.7035 144.13L97.8557 144.206H90.5274C89.3856 144.206 88.2923 144.206 87.1297 144.206C86.8279 144.169 86.5365 144.073 86.2727 143.922C86.0088 143.771 85.7779 143.569 85.5935 143.327C85.2368 142.848 85.067 142.255 85.116 141.659C85.116 139.454 85.116 137.281 85.116 135.141C85.116 130.871 85.116 126.754 85.116 122.823C85.116 120.865 85.116 118.948 85.116 117.086C85.116 116.159 85.116 115.239 85.116 114.318C85.1377 113.84 85.3111 113.381 85.6109 113.008C85.9107 112.635 86.3214 112.367 86.7837 112.242C87.2219 112.163 87.668 112.138 88.1123 112.166H91.8699H96.5271L110.589 112.222H114.415H115.405C115.518 112.215 115.631 112.215 115.744 112.222C115.744 112.222 115.633 112.222 115.405 112.222H114.415H110.589L96.5271 112.284H88.1469C87.7279 112.263 87.3079 112.289 86.8944 112.36C86.4941 112.467 86.1385 112.7 85.8796 113.024C85.6206 113.347 85.4719 113.745 85.4551 114.159V116.927C85.4551 118.789 85.4551 120.706 85.4551 122.664C85.4551 126.595 85.4551 130.712 85.4551 134.982V141.5C85.4067 142.017 85.5495 142.534 85.8564 142.953C86.0132 143.155 86.2082 143.323 86.4303 143.449C86.6523 143.575 86.8971 143.656 87.1505 143.687C88.2231 143.722 89.3856 143.687 90.5067 143.687H97.9249L97.9803 143.763L102.056 149.548H101.766L105.309 143.77L105.357 143.687H105.454L114.872 143.936C115.239 143.936 115.626 143.936 115.972 143.936C116.312 143.905 116.638 143.789 116.92 143.597C117.197 143.406 117.421 143.148 117.57 142.846C117.719 142.545 117.788 142.21 117.771 141.874C117.771 140.448 117.771 139.064 117.771 137.722C117.771 132.345 117.771 127.605 117.813 123.667C117.855 119.73 117.813 116.637 117.861 114.478C117.86 114.075 117.742 113.681 117.521 113.344C117.299 113.008 116.985 112.743 116.616 112.582C116.351 112.457 116.069 112.375 115.779 112.339Z" fill="#263238"/>
<path d="M106.347 132.4H106.153H105.592H103.516H96.5962H96.5409V132.345C96.4855 131.978 96.4302 131.591 96.3748 131.196C95.9112 127.84 95.496 124.844 95.2261 122.892L95.2676 122.934H93.4269H92.9356H92.7626H92.9356H93.42H95.2607H95.2953C95.579 124.892 95.9873 127.889 96.4925 131.238C96.5478 131.625 96.6032 132.02 96.6516 132.387L96.5893 132.324H103.509H105.585H106.146C106.215 132.343 106.282 132.369 106.347 132.4Z" fill="#263238"/>
<path d="M96.5271 132.601C96.5006 132.598 96.4758 132.586 96.457 132.567C96.4381 132.549 96.4262 132.524 96.4233 132.497L95.1223 123.121H92.9287C92.7349 123.121 92.6449 123.121 92.638 122.989C92.6311 122.858 92.7349 122.851 92.9287 122.844H93.42H95.3022C95.333 122.844 95.3627 122.855 95.3857 122.875C95.4087 122.896 95.4234 122.924 95.4268 122.955L96.7693 132.283L106.153 132.324C106.381 132.324 106.464 132.324 106.471 132.456C106.471 132.58 106.381 132.587 106.153 132.594H105.599H103.523H96.5409L96.5271 132.601Z" fill="#263238"/>
<path d="M96.3195 130.394H96.5132H97.0668H99.1428L106.326 130.359L106.263 130.414C106.478 129.203 106.706 127.895 106.955 126.539C107.08 125.847 107.198 125.155 107.315 124.505L107.378 124.581H98.9075H96.3956H98.9075L107.378 124.546H107.454V124.622C107.343 125.314 107.218 125.958 107.101 126.657C106.859 128.041 106.63 129.321 106.409 130.532V130.58H106.353H99.1705H97.0945H96.3471L96.3195 130.394Z" fill="#263238"/>
<path d="M96.3264 130.525C96.2915 130.525 96.2581 130.511 96.2334 130.487C96.2087 130.462 96.1949 130.428 96.1949 130.394C96.1949 130.276 96.3195 130.269 96.361 130.262H97.053H99.129L106.16 130.227L107.128 124.691L95.5237 124.65C95.4614 124.65 95.3368 124.65 95.3368 124.518C95.3368 124.387 95.4614 124.394 95.5167 124.387H96.3748H100.651H107.433C107.452 124.387 107.47 124.391 107.487 124.399C107.504 124.408 107.519 124.42 107.53 124.435C107.536 124.451 107.54 124.467 107.54 124.484C107.54 124.5 107.536 124.517 107.53 124.532L106.471 130.567C106.466 130.596 106.451 130.622 106.428 130.641C106.405 130.661 106.376 130.671 106.347 130.67L96.3125 130.629L96.3264 130.525Z" fill="#263238"/>
<path d="M99.0459 135.051C99.0229 134.976 99.0044 134.9 98.9906 134.822C98.9261 134.621 98.8004 134.444 98.6307 134.317C98.4931 134.217 98.3303 134.156 98.1605 134.142C97.9906 134.128 97.8201 134.161 97.6678 134.238C97.5155 134.314 97.3872 134.431 97.297 134.576C97.2069 134.72 97.1583 134.887 97.1568 135.058C97.1571 135.229 97.205 135.396 97.2951 135.541C97.3853 135.686 97.5141 135.804 97.6671 135.88C97.8201 135.956 97.9913 135.988 98.1615 135.972C98.3317 135.957 98.4942 135.894 98.6307 135.791C98.801 135.665 98.927 135.488 98.9906 135.286C99.0321 135.141 99.0321 135.051 99.0459 135.051C99.061 135.133 99.061 135.218 99.0459 135.3C98.9982 135.524 98.8733 135.725 98.693 135.867C98.516 136.015 98.2959 136.1 98.0659 136.111C97.836 136.122 97.6088 136.057 97.4187 135.928C97.2286 135.798 97.086 135.61 97.0125 135.391C96.939 135.173 96.9387 134.937 97.0115 134.719C97.0843 134.5 97.2263 134.311 97.4159 134.181C97.6056 134.051 97.8327 133.985 98.0627 133.996C98.2926 134.006 98.5131 134.091 98.6905 134.237C98.8679 134.384 98.9927 134.585 99.0459 134.809C99.0613 134.889 99.0613 134.971 99.0459 135.051Z" fill="#263238"/>
<path d="M97.8972 136.2C97.8215 136.19 97.7471 136.172 97.6758 136.144C97.4507 136.065 97.2555 135.918 97.1169 135.723C96.9782 135.529 96.9027 135.297 96.9008 135.058C96.9033 134.818 96.9789 134.585 97.1174 134.39C97.2558 134.195 97.4507 134.046 97.6758 133.964C97.8574 133.9 98.0522 133.883 98.2421 133.915C98.4321 133.946 98.611 134.025 98.7622 134.144C98.9646 134.308 99.106 134.534 99.1636 134.788C99.1781 134.875 99.1781 134.964 99.1636 135.051C99.178 135.14 99.178 135.231 99.1636 135.321C99.1049 135.601 98.941 135.849 98.7054 136.012C98.4699 136.176 98.1807 136.243 97.8972 136.2ZM98.1948 134.269C98.0613 134.251 97.9256 134.268 97.8004 134.317C97.6491 134.373 97.5187 134.474 97.4271 134.606C97.3354 134.739 97.2869 134.897 97.2883 135.058C97.2879 135.219 97.3368 135.376 97.4283 135.508C97.5199 135.641 97.6497 135.742 97.8004 135.798C97.9252 135.843 98.0589 135.857 98.1902 135.839C98.3215 135.821 98.4465 135.771 98.5546 135.694C98.7025 135.583 98.8114 135.428 98.866 135.252C98.866 135.178 98.8799 135.122 98.9076 135.085V135.023L98.866 134.857C98.8142 134.681 98.7045 134.527 98.5546 134.421C98.4519 134.333 98.3278 134.273 98.1948 134.248V134.269Z" fill="#263238"/>
<path d="M105.315 135.044C105.315 135.044 105.315 134.961 105.253 134.815C105.197 134.612 105.072 134.434 104.9 134.31C104.764 134.207 104.601 134.145 104.431 134.129C104.261 134.113 104.09 134.145 103.937 134.222C103.784 134.298 103.655 134.415 103.565 134.56C103.475 134.705 103.427 134.873 103.426 135.044C103.428 135.214 103.476 135.381 103.567 135.526C103.657 135.67 103.785 135.787 103.937 135.864C104.09 135.94 104.26 135.973 104.43 135.959C104.6 135.945 104.763 135.885 104.9 135.784C105.071 135.658 105.197 135.481 105.26 135.279C105.302 135.134 105.302 135.044 105.315 135.044C105.33 135.124 105.33 135.206 105.315 135.286C105.271 135.512 105.145 135.713 104.963 135.853C104.829 135.961 104.669 136.033 104.5 136.062C104.33 136.091 104.156 136.077 103.994 136.02C103.851 135.972 103.721 135.893 103.612 135.789C103.503 135.686 103.417 135.56 103.362 135.42C103.307 135.28 103.284 135.129 103.293 134.979C103.302 134.829 103.344 134.683 103.416 134.55C103.487 134.418 103.587 134.303 103.708 134.214C103.829 134.124 103.968 134.062 104.115 134.032C104.263 134.002 104.415 134.004 104.561 134.039C104.708 134.074 104.845 134.141 104.963 134.234C105.142 134.377 105.266 134.578 105.315 134.802C105.331 134.882 105.331 134.964 105.315 135.044Z" fill="#263238"/>
<path d="M104.167 136.193C104.092 136.18 104.018 136.161 103.945 136.137C103.72 136.058 103.524 135.91 103.386 135.715C103.248 135.52 103.174 135.286 103.174 135.047C103.174 134.808 103.248 134.575 103.386 134.38C103.524 134.184 103.72 134.037 103.945 133.957C104.127 133.892 104.322 133.874 104.512 133.906C104.702 133.937 104.881 134.017 105.032 134.137C105.235 134.296 105.374 134.522 105.426 134.774C105.444 134.863 105.444 134.955 105.426 135.044C105.44 135.133 105.44 135.224 105.426 135.314C105.365 135.593 105.2 135.838 104.965 136.001C104.73 136.164 104.443 136.232 104.16 136.193H104.167ZM104.492 134.248C104.359 134.232 104.224 134.246 104.098 134.29C103.991 134.33 103.894 134.392 103.814 134.473C103.734 134.553 103.671 134.65 103.632 134.757C103.592 134.864 103.576 134.978 103.584 135.091C103.592 135.205 103.624 135.315 103.679 135.415C103.733 135.515 103.809 135.602 103.9 135.671C103.991 135.739 104.095 135.787 104.207 135.812C104.318 135.836 104.433 135.836 104.544 135.813C104.655 135.789 104.76 135.741 104.852 135.674C105.003 135.565 105.112 135.409 105.163 135.231C105.18 135.176 105.194 135.121 105.205 135.065V135.009C105.205 134.975 105.205 134.912 105.163 134.843C105.112 134.665 105.003 134.509 104.852 134.4C104.745 134.323 104.622 134.27 104.492 134.248Z" fill="#263238"/>
<path d="M110.948 125.48C110.948 126.126 110.757 126.758 110.398 127.295C110.039 127.832 109.529 128.251 108.932 128.498C108.335 128.745 107.678 128.81 107.045 128.684C106.411 128.558 105.829 128.247 105.373 127.79C104.916 127.333 104.605 126.751 104.479 126.118C104.353 125.484 104.417 124.827 104.664 124.23C104.912 123.634 105.33 123.123 105.867 122.765C106.405 122.406 107.036 122.214 107.682 122.214C108.548 122.216 109.378 122.561 109.99 123.173C110.602 123.785 110.947 124.615 110.948 125.48Z" fill="#00B050"/>
<path d="M105.814 125.55L106.298 125.058L107.246 125.896L109.094 124.117L109.551 124.602L107.177 126.837L105.814 125.55Z" fill="white"/>
<path d="M190.616 230.196C190.616 230.74 190.68 231.231 190.808 231.668C190.946 232.105 191.138 232.484 191.384 232.804C191.64 233.113 191.949 233.353 192.312 233.524C192.674 233.695 193.09 233.78 193.56 233.78C194.018 233.78 194.429 233.695 194.792 233.524C195.165 233.353 195.474 233.113 195.72 232.804C195.976 232.484 196.168 232.105 196.296 231.668C196.434 231.231 196.504 230.74 196.504 230.196C196.504 229.652 196.434 229.161 196.296 228.724C196.168 228.276 195.976 227.897 195.72 227.588C195.474 227.268 195.165 227.023 194.792 226.852C194.429 226.681 194.018 226.596 193.56 226.596C193.09 226.596 192.674 226.687 192.312 226.868C191.949 227.039 191.64 227.284 191.384 227.604C191.138 227.913 190.946 228.292 190.808 228.74C190.68 229.177 190.616 229.663 190.616 230.196ZM199.08 230.196C199.08 231.145 198.936 231.983 198.648 232.708C198.37 233.423 197.986 234.025 197.496 234.516C197.005 234.996 196.418 235.359 195.736 235.604C195.064 235.849 194.338 235.972 193.56 235.972C192.802 235.972 192.088 235.849 191.416 235.604C190.744 235.359 190.157 234.996 189.656 234.516C189.154 234.025 188.76 233.423 188.472 232.708C188.184 231.983 188.04 231.145 188.04 230.196C188.04 229.247 188.189 228.415 188.488 227.7C188.786 226.975 189.186 226.367 189.688 225.876C190.2 225.385 190.786 225.017 191.448 224.772C192.12 224.527 192.824 224.404 193.56 224.404C194.317 224.404 195.032 224.527 195.704 224.772C196.376 225.017 196.962 225.385 197.464 225.876C197.965 226.367 198.36 226.975 198.648 227.7C198.936 228.415 199.08 229.247 199.08 230.196ZM206.392 231.476C206.392 229.94 205.827 229.172 204.696 229.172C204.451 229.172 204.206 229.204 203.96 229.268C203.726 229.332 203.534 229.412 203.384 229.508V233.844C203.502 233.865 203.651 233.887 203.832 233.908C204.014 233.919 204.211 233.924 204.424 233.924C205.075 233.924 205.566 233.7 205.896 233.252C206.227 232.804 206.392 232.212 206.392 231.476ZM208.824 231.54C208.824 232.212 208.723 232.82 208.52 233.364C208.328 233.908 208.046 234.372 207.672 234.756C207.299 235.14 206.84 235.439 206.296 235.652C205.752 235.855 205.134 235.956 204.44 235.956C204.152 235.956 203.848 235.94 203.528 235.908C203.219 235.887 202.91 235.855 202.6 235.812C202.302 235.769 202.014 235.721 201.736 235.668C201.459 235.604 201.214 235.54 201 235.476V223.716L203.384 223.332V227.524C203.651 227.407 203.928 227.316 204.216 227.252C204.504 227.188 204.814 227.156 205.144 227.156C205.742 227.156 206.27 227.263 206.728 227.476C207.187 227.679 207.571 227.972 207.88 228.356C208.19 228.74 208.424 229.204 208.584 229.748C208.744 230.281 208.824 230.879 208.824 231.54ZM215.728 229.444C215.515 229.391 215.264 229.337 214.976 229.284C214.688 229.22 214.379 229.188 214.048 229.188C213.899 229.188 213.718 229.204 213.504 229.236C213.302 229.257 213.147 229.284 213.04 229.316V235.748H210.656V227.78C211.083 227.631 211.584 227.492 212.16 227.364C212.747 227.225 213.398 227.156 214.112 227.156C214.24 227.156 214.395 227.167 214.576 227.188C214.758 227.199 214.939 227.22 215.12 227.252C215.302 227.273 215.483 227.305 215.664 227.348C215.846 227.38 216 227.423 216.128 227.476L215.728 229.444ZM219.79 235.748H217.406V227.332H219.79V235.748ZM220.014 224.9C220.014 225.337 219.87 225.684 219.582 225.94C219.305 226.185 218.974 226.308 218.59 226.308C218.206 226.308 217.87 226.185 217.582 225.94C217.305 225.684 217.166 225.337 217.166 224.9C217.166 224.463 217.305 224.121 217.582 223.876C217.87 223.62 218.206 223.492 218.59 223.492C218.974 223.492 219.305 223.62 219.582 223.876C219.87 224.121 220.014 224.463 220.014 224.9ZM224.063 231.268C224.063 232.601 224.602 233.268 225.679 233.268C225.925 233.268 226.154 233.236 226.367 233.172C226.581 233.108 226.762 233.033 226.911 232.948V229.14C226.794 229.119 226.655 229.103 226.495 229.092C226.335 229.071 226.149 229.06 225.935 229.06C225.306 229.06 224.837 229.268 224.527 229.684C224.218 230.1 224.063 230.628 224.063 231.268ZM229.295 234.692C229.295 236.068 228.943 237.087 228.239 237.748C227.546 238.42 226.469 238.756 225.007 238.756C224.495 238.756 223.983 238.708 223.471 238.612C222.959 238.527 222.485 238.409 222.047 238.26L222.463 236.26C222.837 236.409 223.226 236.527 223.631 236.612C224.047 236.697 224.517 236.74 225.039 236.74C225.722 236.74 226.202 236.591 226.479 236.292C226.767 235.993 226.911 235.609 226.911 235.14V234.836C226.655 234.953 226.389 235.044 226.111 235.108C225.845 235.161 225.551 235.188 225.231 235.188C224.069 235.188 223.178 234.847 222.559 234.164C221.941 233.471 221.631 232.505 221.631 231.268C221.631 230.649 221.727 230.089 221.919 229.588C222.111 229.076 222.389 228.639 222.751 228.276C223.125 227.913 223.578 227.636 224.111 227.444C224.645 227.241 225.247 227.14 225.919 227.14C226.207 227.14 226.501 227.156 226.799 227.188C227.109 227.209 227.413 227.241 227.711 227.284C228.01 227.327 228.293 227.38 228.559 227.444C228.837 227.497 229.082 227.556 229.295 227.62V234.692ZM234.747 234.084C234.982 234.084 235.206 234.079 235.419 234.068C235.633 234.057 235.803 234.041 235.931 234.02V232.212C235.835 232.191 235.691 232.169 235.499 232.148C235.307 232.127 235.131 232.116 234.971 232.116C234.747 232.116 234.534 232.132 234.331 232.164C234.139 232.185 233.969 232.233 233.819 232.308C233.67 232.383 233.553 232.484 233.467 232.612C233.382 232.74 233.339 232.9 233.339 233.092C233.339 233.465 233.462 233.727 233.707 233.876C233.963 234.015 234.31 234.084 234.747 234.084ZM234.555 227.108C235.259 227.108 235.846 227.188 236.315 227.348C236.785 227.508 237.158 227.737 237.435 228.036C237.723 228.335 237.926 228.697 238.043 229.124C238.161 229.551 238.219 230.025 238.219 230.548V235.508C237.878 235.583 237.403 235.668 236.795 235.764C236.187 235.871 235.451 235.924 234.587 235.924C234.043 235.924 233.547 235.876 233.099 235.78C232.662 235.684 232.283 235.529 231.963 235.316C231.643 235.092 231.398 234.804 231.227 234.452C231.057 234.1 230.971 233.668 230.971 233.156C230.971 232.665 231.067 232.249 231.259 231.908C231.462 231.567 231.729 231.295 232.059 231.092C232.39 230.889 232.769 230.745 233.195 230.66C233.622 230.564 234.065 230.516 234.523 230.516C234.833 230.516 235.105 230.532 235.339 230.564C235.585 230.585 235.782 230.617 235.931 230.66V230.436C235.931 230.031 235.809 229.705 235.563 229.46C235.318 229.215 234.891 229.092 234.283 229.092C233.878 229.092 233.478 229.124 233.083 229.188C232.689 229.241 232.347 229.321 232.059 229.428L231.755 227.508C231.894 227.465 232.065 227.423 232.267 227.38C232.481 227.327 232.71 227.284 232.955 227.252C233.201 227.209 233.457 227.177 233.723 227.156C234.001 227.124 234.278 227.108 234.555 227.108ZM242.407 231.476C242.407 232.212 242.573 232.804 242.903 233.252C243.234 233.7 243.725 233.924 244.375 233.924C244.589 233.924 244.786 233.919 244.967 233.908C245.149 233.887 245.298 233.865 245.415 233.844V229.508C245.266 229.412 245.069 229.332 244.823 229.268C244.589 229.204 244.349 229.172 244.103 229.172C242.973 229.172 242.407 229.94 242.407 231.476ZM247.799 235.476C247.586 235.54 247.341 235.604 247.063 235.668C246.786 235.721 246.493 235.769 246.183 235.812C245.885 235.855 245.575 235.887 245.255 235.908C244.946 235.94 244.647 235.956 244.359 235.956C243.666 235.956 243.047 235.855 242.503 235.652C241.959 235.449 241.501 235.161 241.127 234.788C240.754 234.404 240.466 233.945 240.263 233.412C240.071 232.868 239.975 232.26 239.975 231.588C239.975 230.905 240.061 230.292 240.231 229.748C240.402 229.193 240.647 228.724 240.967 228.34C241.287 227.956 241.677 227.663 242.135 227.46C242.605 227.257 243.138 227.156 243.735 227.156C244.066 227.156 244.359 227.188 244.615 227.252C244.882 227.316 245.149 227.407 245.415 227.524V223.716L247.799 223.332V235.476ZM257.903 231.524C257.903 232.185 257.807 232.793 257.615 233.348C257.423 233.892 257.146 234.361 256.783 234.756C256.421 235.14 255.983 235.439 255.471 235.652C254.97 235.865 254.405 235.972 253.775 235.972C253.157 235.972 252.591 235.865 252.079 235.652C251.578 235.439 251.146 235.14 250.783 234.756C250.421 234.361 250.138 233.892 249.935 233.348C249.733 232.793 249.631 232.185 249.631 231.524C249.631 230.863 249.733 230.26 249.935 229.716C250.149 229.172 250.437 228.708 250.799 228.324C251.173 227.94 251.61 227.641 252.111 227.428C252.623 227.215 253.178 227.108 253.775 227.108C254.383 227.108 254.938 227.215 255.439 227.428C255.951 227.641 256.389 227.94 256.751 228.324C257.114 228.708 257.397 229.172 257.599 229.716C257.802 230.26 257.903 230.863 257.903 231.524ZM255.471 231.524C255.471 230.788 255.322 230.212 255.023 229.796C254.735 229.369 254.319 229.156 253.775 229.156C253.231 229.156 252.81 229.369 252.511 229.796C252.213 230.212 252.063 230.788 252.063 231.524C252.063 232.26 252.213 232.847 252.511 233.284C252.81 233.711 253.231 233.924 253.775 233.924C254.319 233.924 254.735 233.711 255.023 233.284C255.322 232.847 255.471 232.26 255.471 231.524ZM262.198 227.524C262.198 228.388 262.166 229.193 262.102 229.94C262.038 230.687 261.953 231.444 261.846 232.212H260.022C259.916 231.444 259.825 230.687 259.75 229.94C259.686 229.193 259.654 228.388 259.654 227.524V224.66H262.198V227.524ZM262.406 234.484C262.406 234.953 262.252 235.316 261.942 235.572C261.644 235.828 261.302 235.956 260.918 235.956C260.534 235.956 260.188 235.828 259.878 235.572C259.58 235.316 259.43 234.953 259.43 234.484C259.43 234.015 259.58 233.652 259.878 233.396C260.188 233.14 260.534 233.012 260.918 233.012C261.302 233.012 261.644 233.14 261.942 233.396C262.252 233.652 262.406 234.015 262.406 234.484Z" fill="#2B478B"/>
</svg>
