<svg width="178" height="71" viewBox="0 0 178 71" fill="none" xmlns="http://www.w3.org/2000/svg">
<path fill-rule="evenodd" clip-rule="evenodd" d="M28.3707 21.6294C26.0378 20.622 23.7098 20.4587 21.527 20.5045C18.1117 20.5762 15.3606 21.7953 14.4689 22.3537C14.115 22.5754 13.6459 22.4721 13.4212 22.1229C13.1964 21.7738 13.3012 21.3111 13.6551 21.0894C14.7561 20.3998 17.7744 19.0853 21.4947 19.0072C23.7718 18.9594 26.3544 19.1238 28.9795 20.2575C31.6147 21.3955 34.227 23.4811 36.6209 27.1679C36.7317 27.3385 36.7676 27.5462 36.7205 27.7434C36.6734 27.9407 36.5473 28.1107 36.3709 28.2146L30.1082 31.9049C29.7483 32.117 29.2822 32.0011 29.0672 31.6461C28.8522 31.291 28.9697 30.8313 29.3296 30.6192L34.9097 27.3311C32.7821 24.2671 30.5455 22.5687 28.3707 21.6294ZM13.9123 24.5692C17.4471 22.2824 21.8096 21.8123 24.6398 22.3358C25.0519 22.412 25.3233 22.8033 25.246 23.2098C25.1688 23.6162 24.7721 23.884 24.36 23.8078C21.8764 23.3484 17.9198 23.7676 14.745 25.8216C11.6316 27.8358 9.20312 31.4624 9.74167 37.6094C10.0483 41.1099 12.2752 44.0041 15.3131 45.7688C18.3558 47.5363 22.1285 48.1187 25.4044 47.0707C25.8032 46.9431 26.2313 47.1586 26.3607 47.552C26.49 47.9454 26.2716 48.3677 25.8728 48.4953C22.1268 49.6938 17.9051 49.0126 14.5427 47.0593C11.1755 45.1033 8.58664 41.8197 8.22906 37.7384C7.64411 31.0617 10.316 26.8959 13.9123 24.5692ZM10.9763 23.6964C11.2817 23.9797 11.2964 24.4536 11.0091 24.7549C9.30277 26.5442 6.51824 30.2823 6.51824 34.9126C6.51824 35.3261 6.17837 35.6614 5.75912 35.6614C5.33987 35.6614 5 35.3261 5 34.9126C5 29.7145 8.09866 25.6211 9.90325 23.7287C10.1905 23.4275 10.6709 23.413 10.9763 23.6964ZM28.5705 24.3806C28.8072 24.0393 29.2796 23.9519 29.6257 24.1854C29.9407 24.398 30.4292 24.7484 30.8826 25.1172C31.1093 25.3016 31.3355 25.4972 31.5298 25.6875C31.7136 25.8677 31.9103 26.0825 32.0386 26.304C32.2381 26.6485 32.1307 27.0867 31.7935 27.3031L28.8045 29.222C28.4885 29.4248 28.0695 29.3682 27.8204 29.0889C25.7756 26.7958 23.0519 26.2573 20.607 26.7095C18.1122 27.1709 16.0659 28.6302 15.3683 30.1244C15.1929 30.5001 14.7421 30.6644 14.3613 30.4914C13.9804 30.3184 13.8139 29.8736 13.9893 29.498C14.9523 27.4352 17.5081 25.7589 20.3272 25.2375C23.0239 24.7387 26.1031 25.2667 28.5082 27.6253L30.2186 26.5273C30.1247 26.4447 30.0232 26.3593 29.9168 26.2728C29.5052 25.938 29.0543 25.6144 28.7683 25.4214C28.4223 25.1879 28.3337 24.7219 28.5705 24.3806ZM21.5174 29.6206C19.8118 29.7804 18.0593 30.8013 17.2529 33.3134C15.937 37.4122 18.2019 40.0557 19.4125 40.8385C19.7631 41.0653 19.861 41.5295 19.6312 41.8753C19.4013 42.2212 18.9307 42.3178 18.5801 42.0911C16.944 41.033 14.2366 37.7483 15.8055 32.8612C16.8019 29.7571 19.0822 28.3443 21.3739 28.1297C23.5819 27.9229 25.8795 28.8347 26.8991 30.444C27.1213 30.7947 27.0133 31.2566 26.6577 31.4758C26.3022 31.695 25.8339 31.5884 25.6117 31.2377C24.9707 30.2261 23.3067 29.453 21.5174 29.6206ZM13.088 34.2109C13.507 34.223 13.8368 34.568 13.8245 34.9814C13.6673 40.2563 16.251 43.1093 19.2692 44.1166C22.3675 45.1505 25.9907 44.2796 27.9987 41.9194C28.2368 41.6396 28.6449 41.5701 28.9644 41.755L31.9496 43.4827C32.2956 43.6829 32.4239 44.114 32.2427 44.4669C31.8857 45.162 31.2074 45.7745 30.6055 46.2261C30.2718 46.4765 29.7955 46.4127 29.5417 46.0835C29.2879 45.7543 29.3526 45.2845 29.6863 45.0341C29.9828 44.8117 30.2486 44.5819 30.4619 44.358L28.7272 43.3541C26.2244 45.8682 22.2041 46.677 18.7827 45.5352C15.0755 44.298 12.1319 40.8094 12.3069 34.9374C12.3192 34.524 12.6689 34.1987 13.088 34.2109ZM27.0762 38.1295C27.2877 37.7836 27.7393 37.6655 28.0968 37.8628L36.4945 42.4961C36.671 42.5935 36.8008 42.7563 36.8552 42.9484C36.9095 43.1405 36.8839 43.3461 36.784 43.5195C30.8028 53.9057 20.0807 52.0291 17.4889 51.5755L17.4731 51.5727L17.4731 51.5727L17.4404 51.567C17.0276 51.4948 16.7523 51.1061 16.8255 50.6989C16.8987 50.2917 17.2927 50.0201 17.7055 50.0924L17.7383 50.0981L17.7383 50.0981C20.2691 50.541 29.5726 52.1467 35.0732 43.4279L27.9781 39.5133C27.6704 39.9568 27.2705 40.4732 26.791 40.9656C26.0736 41.7024 25.1254 42.4403 23.9895 42.7484C23.5853 42.8581 23.1675 42.6237 23.0563 42.225C22.9451 41.8262 23.1827 41.4141 23.587 41.3044C24.349 41.0977 25.0692 40.572 25.696 39.9282C26.3157 39.2917 26.7927 38.5932 27.0762 38.1295ZM5.9181 38.4424C6.3263 38.3481 6.73473 38.5981 6.83035 39.0007C7.38856 41.3513 9.12382 45.4261 13.0584 48.0015C13.4077 48.2302 13.503 48.6949 13.2712 49.0395C13.0394 49.3841 12.5683 49.4781 12.2189 49.2494C7.85151 46.3907 5.96264 41.9132 5.35213 39.3423C5.2565 38.9396 5.5099 38.5368 5.9181 38.4424Z" fill="url(#paint0_linear_2996_722)"/>
<path d="M42.567 36.3952C42.567 35.257 42.7492 34.1887 43.1136 33.1902C43.4982 32.1718 44.0448 31.2932 44.7533 30.5544C45.4618 29.7956 46.3221 29.1965 47.3343 28.7572C48.3465 28.3179 49.5003 28.0982 50.7959 28.0982C51.6461 28.0982 52.4255 28.1781 53.134 28.3378C53.8425 28.4776 54.5308 28.6873 55.1988 28.9669L54.2575 32.5313C53.8324 32.3715 53.3668 32.2317 52.8607 32.1119C52.3546 31.9921 51.7878 31.9322 51.1603 31.9322C49.8242 31.9322 48.8222 32.3416 48.1542 33.1603C47.5064 33.979 47.1825 35.0573 47.1825 36.3952C47.1825 37.813 47.4861 38.9113 48.0934 39.69C48.721 40.4688 49.804 40.8582 51.3425 40.8582C51.889 40.8582 52.4761 40.8083 53.1036 40.7084C53.7312 40.6086 54.3081 40.4489 54.8344 40.2292L55.4721 43.8835C54.9458 44.1031 54.2879 44.2928 53.4984 44.4526C52.7089 44.6123 51.8384 44.6922 50.887 44.6922C49.4295 44.6922 48.1744 44.4825 47.1217 44.0632C46.0691 43.6239 45.1986 43.0348 44.5104 42.296C43.8423 41.5571 43.3464 40.6885 43.0225 39.69C42.7188 38.6716 42.567 37.5734 42.567 36.3952Z" fill="#661081"/>
<path d="M63.803 41.1577C64.2483 41.1577 64.6734 41.1478 65.0783 41.1278C65.4832 41.1078 65.807 41.0779 66.05 41.0379V37.6532C65.8678 37.6133 65.5945 37.5734 65.2301 37.5334C64.8657 37.4935 64.5317 37.4735 64.2281 37.4735C63.803 37.4735 63.3981 37.5035 63.0135 37.5634C62.6491 37.6033 62.3252 37.6932 62.0418 37.833C61.7584 37.9727 61.5357 38.1624 61.3738 38.4021C61.2118 38.6417 61.1309 38.9412 61.1309 39.3007C61.1309 39.9996 61.3637 40.4888 61.8293 40.7684C62.3151 41.0279 62.973 41.1577 63.803 41.1577ZM63.4386 28.0982C64.7746 28.0982 65.888 28.248 66.7787 28.5475C67.6694 28.847 68.3779 29.2764 68.9043 29.8355C69.4508 30.3946 69.8355 31.0735 70.0581 31.8723C70.2808 32.671 70.3921 33.5597 70.3921 34.5381V43.8236C69.7444 43.9633 68.8435 44.1231 67.6897 44.3028C66.5358 44.5025 65.139 44.6023 63.4993 44.6023C62.4669 44.6023 61.5256 44.5125 60.6754 44.3328C59.8454 44.153 59.1268 43.8635 58.5195 43.4641C57.9122 43.0448 57.4466 42.5056 57.1227 41.8467C56.7988 41.1877 56.6369 40.379 56.6369 39.4205C56.6369 38.5019 56.819 37.7231 57.1834 37.0841C57.568 36.4451 58.0741 35.9359 58.7017 35.5565C59.3292 35.1771 60.0478 34.9075 60.8576 34.7478C61.6673 34.5681 62.5074 34.4782 63.3779 34.4782C63.9649 34.4782 64.4811 34.5082 64.9265 34.5681C65.3921 34.608 65.7666 34.6679 66.05 34.7478V34.3284C66.05 33.5696 65.8172 32.9606 65.3516 32.5013C64.886 32.042 64.0763 31.8124 62.9224 31.8124C62.1531 31.8124 61.394 31.8723 60.645 31.9921C59.896 32.092 59.2482 32.2417 58.7017 32.4414L58.1247 28.847C58.3879 28.7672 58.7118 28.6873 59.0964 28.6074C59.5013 28.5076 59.9365 28.4277 60.4021 28.3678C60.8677 28.2879 61.3535 28.228 61.8596 28.1881C62.3859 28.1282 62.9123 28.0982 63.4386 28.0982Z" fill="#661081"/>
<path d="M82.0783 32.4714C81.6735 32.3715 81.1978 32.2717 80.6512 32.1718C80.1046 32.052 79.5176 31.9921 78.89 31.9921C78.6066 31.9921 78.2625 32.0221 77.8576 32.082C77.473 32.1219 77.1795 32.1718 76.977 32.2317V44.2729H72.4527V29.3562C73.2624 29.0767 74.2138 28.8171 75.307 28.5775C76.4204 28.3179 77.6552 28.1881 79.0115 28.1881C79.2544 28.1881 79.5479 28.208 79.8921 28.248C80.2362 28.2679 80.5803 28.3079 80.9245 28.3678C81.2686 28.4077 81.6128 28.4676 81.9569 28.5475C82.301 28.6074 82.5945 28.6873 82.8375 28.7871L82.0783 32.4714Z" fill="#661081"/>
<path d="M87.646 36.2754C87.646 37.6532 87.9598 38.7615 88.5873 39.6002C89.2149 40.4389 90.1461 40.8582 91.3809 40.8582C91.7858 40.8582 92.1603 40.8482 92.5044 40.8283C92.8485 40.7883 93.1319 40.7484 93.3546 40.7084V32.5912C93.0712 32.4115 92.6967 32.2617 92.2311 32.1419C91.7858 32.0221 91.3303 31.9622 90.8647 31.9622C88.7189 31.9622 87.646 33.3999 87.646 36.2754ZM97.879 43.7637C97.4741 43.8835 97.0085 44.0033 96.4822 44.1231C95.9559 44.2229 95.3992 44.3128 94.8121 44.3927C94.2453 44.4725 93.6583 44.5325 93.051 44.5724C92.4639 44.6323 91.8971 44.6622 91.3505 44.6622C90.0347 44.6622 88.8606 44.4725 87.8282 44.0931C86.7958 43.7137 85.9253 43.1746 85.2168 42.4757C84.5083 41.7568 83.9618 40.8981 83.5771 39.8997C83.2128 38.8813 83.0306 37.7431 83.0306 36.4851C83.0306 35.2071 83.1925 34.0589 83.5164 33.0405C83.8403 32.0021 84.3059 31.1235 84.9132 30.4046C85.5205 29.6857 86.2594 29.1366 87.1298 28.7572C88.0205 28.3778 89.0327 28.1881 90.1663 28.1881C90.7939 28.1881 91.3505 28.248 91.8364 28.3678C92.3425 28.4876 92.8485 28.6573 93.3546 28.877V21.7482L97.879 21.0293V43.7637Z" fill="#661081"/>
<path d="M105.049 41.0679C105.879 41.0679 106.466 40.988 106.811 40.8283C107.155 40.6685 107.327 40.359 107.327 39.8997C107.327 39.5403 107.104 39.2308 106.659 38.9712C106.213 38.6916 105.535 38.3821 104.624 38.0426C103.916 37.783 103.268 37.5135 102.681 37.2339C102.114 36.9543 101.628 36.6248 101.223 36.2454C100.819 35.8461 100.505 35.3768 100.282 34.8376C100.059 34.2985 99.9481 33.6495 99.9481 32.8907C99.9481 31.413 100.505 30.2448 101.618 29.3862C102.732 28.5275 104.26 28.0982 106.203 28.0982C107.175 28.0982 108.106 28.1881 108.997 28.3678C109.887 28.5275 110.596 28.7073 111.122 28.9069L110.333 32.3815C109.807 32.2018 109.23 32.042 108.602 31.9023C107.995 31.7625 107.306 31.6926 106.537 31.6926C105.12 31.6926 104.412 32.082 104.412 32.8607C104.412 33.0405 104.442 33.2002 104.503 33.34C104.564 33.4798 104.685 33.6196 104.867 33.7593C105.049 33.8792 105.292 34.0189 105.596 34.1787C105.92 34.3185 106.325 34.4782 106.811 34.6579C107.802 35.0174 108.622 35.3768 109.27 35.7362C109.918 36.0757 110.424 36.4551 110.788 36.8745C111.173 37.2738 111.436 37.7231 111.578 38.2223C111.74 38.7216 111.821 39.3007 111.821 39.9596C111.821 41.5172 111.224 42.6953 110.029 43.4941C108.855 44.2928 107.185 44.6922 105.019 44.6922C103.602 44.6922 102.418 44.5724 101.466 44.3328C100.535 44.0931 99.9435 43.9453 99.0895 43.5708L100.282 40.1094C101.051 40.4089 101.841 40.6485 102.651 40.8283C103.46 40.988 104.26 41.0679 105.049 41.0679Z" fill="#661081"/>
<path d="M116.305 44.3066H114.331V28.8209H116.305V44.3066ZM116.76 24.1482C116.76 24.6075 116.618 24.9769 116.335 25.2565C116.051 25.5161 115.707 25.6459 115.302 25.6459C114.898 25.6459 114.553 25.5161 114.27 25.2565C113.987 24.9769 113.845 24.6075 113.845 24.1482C113.845 23.6889 113.987 23.3295 114.27 23.0699C114.553 22.7904 114.898 22.6506 115.302 22.6506C115.707 22.6506 116.051 22.7904 116.335 23.0699C116.618 23.3295 116.76 23.6889 116.76 24.1482Z" fill="#FF9900"/>
<path d="M118.937 29.3601C119.524 29.2003 120.313 29.0206 121.305 28.8209C122.297 28.6212 123.512 28.5214 124.949 28.5214C126.143 28.5214 127.135 28.6911 127.925 29.0306C128.734 29.37 129.372 29.8593 129.838 30.4983C130.323 31.1173 130.667 31.8661 130.87 32.7448C131.072 33.6234 131.174 34.5919 131.174 35.6502V44.3066H129.2V36.2792C129.2 35.1809 129.119 34.2524 128.957 33.4936C128.815 32.7348 128.562 32.1157 128.198 31.6365C127.854 31.1572 127.388 30.8178 126.801 30.6181C126.234 30.3984 125.516 30.2886 124.645 30.2886C123.714 30.2886 122.904 30.3385 122.216 30.4384C121.548 30.5382 121.113 30.6281 120.91 30.7079V44.3066H118.937V29.3601Z" fill="#FF9900"/>
<path d="M147.395 36.5787C147.395 37.7968 147.213 38.9051 146.848 39.9035C146.504 40.902 146.008 41.7506 145.36 42.4495C144.733 43.1484 143.984 43.6976 143.113 44.097C142.243 44.4764 141.281 44.6661 140.229 44.6661C139.176 44.6661 138.215 44.4764 137.344 44.097C136.474 43.6976 135.714 43.1484 135.067 42.4495C134.439 41.7506 133.943 40.902 133.579 39.9035C133.235 38.9051 133.063 37.7968 133.063 36.5787C133.063 35.3607 133.235 34.2524 133.579 33.254C133.943 32.2555 134.439 31.4068 135.067 30.7079C135.714 29.9891 136.474 29.4399 137.344 29.0605C138.215 28.6612 139.176 28.4615 140.229 28.4615C141.281 28.4615 142.243 28.6612 143.113 29.0605C143.984 29.4399 144.733 29.9891 145.36 30.7079C146.008 31.4068 146.504 32.2555 146.848 33.254C147.213 34.2524 147.395 35.3607 147.395 36.5787ZM145.3 36.5787C145.3 34.6418 144.844 33.1042 143.933 31.966C143.022 30.8078 141.787 30.2287 140.229 30.2287C138.67 30.2287 137.435 30.8078 136.524 31.966C135.613 33.1042 135.158 34.6418 135.158 36.5787C135.158 38.5157 135.613 40.0533 136.524 41.1915C137.435 42.3297 138.67 42.8988 140.229 42.8988C141.787 42.8988 143.022 42.3297 143.933 41.1915C144.844 40.0533 145.3 38.5157 145.3 36.5787Z" fill="#FF9900"/>
<path d="M154.478 42.2099C154.903 41.3513 155.339 40.3728 155.784 39.2745C156.229 38.1563 156.655 37.0081 157.059 35.8299C157.484 34.6318 157.869 33.4337 158.213 32.2355C158.578 31.0175 158.881 29.8792 159.124 28.8209H161.098C160.734 30.2387 160.329 31.6365 159.883 33.0143C159.438 34.3922 158.962 35.7401 158.456 37.058C157.97 38.3759 157.454 39.6439 156.908 40.862C156.381 42.0801 155.865 43.2283 155.359 44.3066H153.476C152.95 43.2283 152.424 42.0801 151.897 40.862C151.371 39.6439 150.855 38.3759 150.349 37.058C149.863 35.7401 149.397 34.3922 148.952 33.0143C148.507 31.6365 148.102 30.2387 147.737 28.8209H149.833C150.075 29.8792 150.369 31.0175 150.713 32.2355C151.078 33.4337 151.462 34.6318 151.867 35.8299C152.292 37.0081 152.727 38.1563 153.173 39.2745C153.618 40.3728 154.053 41.3513 154.478 42.2099Z" fill="#FF9900"/>
<path d="M167.534 42.8988C168.304 42.8988 168.972 42.8789 169.538 42.8389C170.125 42.779 170.621 42.7091 171.026 42.6293V37.1778C170.804 37.078 170.449 36.9781 169.964 36.8783C169.478 36.7585 168.81 36.6986 167.959 36.6986C167.474 36.6986 166.968 36.7385 166.441 36.8184C165.915 36.8783 165.429 37.028 164.984 37.2677C164.538 37.4873 164.174 37.7968 163.891 38.1962C163.607 38.5956 163.465 39.1247 163.465 39.7837C163.465 40.3628 163.557 40.852 163.739 41.2514C163.941 41.6508 164.214 41.9703 164.559 42.2099C164.923 42.4495 165.348 42.6293 165.834 42.7491C166.34 42.8489 166.907 42.8988 167.534 42.8988ZM167.352 28.4615C168.385 28.4615 169.255 28.6112 169.964 28.9108C170.692 29.1903 171.279 29.5897 171.725 30.1089C172.17 30.6081 172.494 31.2072 172.696 31.9061C172.899 32.605 173 33.3638 173 34.1825V43.9472C172.798 44.0071 172.504 44.077 172.119 44.1569C171.735 44.2168 171.289 44.2867 170.783 44.3665C170.277 44.4464 169.71 44.5063 169.083 44.5462C168.476 44.6062 167.848 44.6361 167.2 44.6361C166.37 44.6361 165.601 44.5462 164.893 44.3665C164.204 44.1868 163.597 43.9073 163.071 43.5278C162.565 43.1285 162.16 42.6293 161.856 42.0302C161.573 41.4112 161.431 40.6623 161.431 39.7837C161.431 38.945 161.593 38.2262 161.917 37.6271C162.241 37.028 162.696 36.5388 163.283 36.1594C163.87 35.76 164.569 35.4705 165.378 35.2908C166.188 35.111 167.069 35.0212 168.02 35.0212C168.304 35.0212 168.597 35.0412 168.901 35.0811C169.225 35.1011 169.528 35.141 169.812 35.2009C170.115 35.2408 170.368 35.2908 170.571 35.3507C170.793 35.3906 170.945 35.4305 171.026 35.4705V34.512C171.026 33.9728 170.986 33.4536 170.905 32.9544C170.824 32.4352 170.642 31.976 170.358 31.5766C170.095 31.1572 169.71 30.8278 169.204 30.5881C168.719 30.3285 168.071 30.1987 167.261 30.1987C166.107 30.1987 165.247 30.2786 164.68 30.4384C164.113 30.5981 163.698 30.7279 163.435 30.8278L163.162 29.1204C163.506 28.9607 164.032 28.8109 164.741 28.6711C165.47 28.5314 166.34 28.4615 167.352 28.4615Z" fill="#FF9900"/>
<defs>
<linearGradient id="paint0_linear_2996_722" x1="9.32343" y1="45.1153" x2="36.5068" y2="21.1352" gradientUnits="userSpaceOnUse">
<stop stop-color="#661081" stop-opacity="0.86"/>
<stop offset="1" stop-color="#FF9900" stop-opacity="0.81"/>
</linearGradient>
</defs>
</svg>
