<svg width="30" height="25" viewBox="0 0 30 25" fill="none" xmlns="http://www.w3.org/2000/svg">
<path d="M28.6604 3.39007C28.7086 4.0309 28.7149 4.66657 28.6847 5.25541C28.6333 5.67234 28.6083 6.21949 28.526 6.88657C28.2793 8.8878 27.5208 10.572 26.334 11.9494C25.2982 13.1338 23.9021 14.1469 22.0988 15.025L21.5643 19.3611C21.5129 19.778 21.3466 20.0961 21.1385 20.409C20.8887 20.7169 20.5708 20.8893 20.2163 21.0149L15.8688 22.5953C15.5143 22.7209 15.1856 22.638 14.8773 22.3884C14.564 22.1805 14.4747 21.8732 14.521 21.4979L15.0093 17.5372C14.3003 17.7884 13.7269 17.9716 13.3306 18.0921C13.1951 18.16 13.0699 18.1446 12.9081 18.0823C12.7411 18.0617 12.6679 17.9681 12.5947 17.8744L10.2523 14.8768C10.1791 14.7831 10.1059 14.6894 10.1265 14.5226C10.1053 14.3507 10.1207 14.2256 10.2196 14.1109C10.4797 13.7197 10.797 13.2085 11.1662 12.6192L7.20095 12.1303C6.82529 12.084 6.54853 11.9229 6.42268 11.5688C6.2551 11.2095 6.29622 10.876 6.5043 10.563L9.05838 6.68762C9.26646 6.37466 9.506 6.15024 9.86562 5.98294C10.2201 5.85733 10.5694 5.77342 10.9868 5.82487L15.3278 6.36001C16.6186 4.8261 17.9467 3.67771 19.3017 2.99822C20.9276 2.18284 22.7893 1.8621 24.7928 2.10909C25.5024 2.19656 26.0399 2.30515 26.4155 2.35146C26.9947 2.46519 27.6106 2.62576 28.2212 2.82802C28.4614 2.94227 28.6078 3.12963 28.6604 3.39007ZM23.553 8.72843C24.0957 8.79532 24.5754 8.68515 25.0442 8.31968C25.4661 7.99076 25.7313 7.55787 25.8033 6.97418C25.8701 6.43217 25.7179 5.94783 25.3937 5.48459C25.0225 5.05791 24.5891 4.79284 24.0465 4.72595C23.4621 4.65391 22.9773 4.80577 22.5553 5.1347C22.0865 5.50017 21.8631 5.9382 21.7962 6.4802C21.7243 7.0639 21.8347 7.5431 22.2058 7.96978C22.5301 8.43302 22.9687 8.65639 23.553 8.72843Z" stroke="#08698C" stroke-width="2.5"/>
<path d="M4.39922 17.7618C3.45682 18.6642 2.16299 22.7408 2.01855 23.2021C1.97187 23.3505 2.01502 23.5116 2.12864 23.6212C2.21319 23.7022 2.32505 23.7452 2.44043 23.7452C2.4827 23.7452 2.52498 23.7393 2.56726 23.7275C3.04903 23.5892 7.30659 22.3503 8.249 21.448C9.31031 20.4318 9.31031 18.778 8.249 17.7618C7.18681 16.7456 5.46053 16.7465 4.39922 17.7618V17.7618Z" stroke="#08698C" stroke-width="2.5"/>
<path d="M27.1108 6.4079C27.6116 8.50073 25.4524 10.7901 23.5519 10.7901C21.6515 10.7901 20.1108 9.24945 20.1108 7.34899C20.1108 5.44853 21.6515 3.4079 23.5519 3.4079C25.4524 3.4079 27.1116 4.00073 27.1108 6.4079Z" fill="white"/>
<circle cx="22.6466" cy="7.88219" r="2.29406" stroke="#08698C" stroke-width="2"/>
</svg>
