<svg width="178" height="71" viewBox="0 0 178 71" fill="none" xmlns="http://www.w3.org/2000/svg">
<path d="M54.0287 20.9854V17.7642H64.7859C64.9054 18.4157 64.9635 19.0769 64.9595 19.7393C64.9595 22.1543 64.3002 25.1451 62.1754 27.2728C60.1099 29.4296 57.4709 30.5801 53.9713 30.5801C47.4891 30.5801 42.0394 25.2888 42.0394 18.79C42.0394 12.2913 47.4891 7 53.9725 7C57.5592 7 60.111 8.40934 62.0332 10.2497L59.7669 12.521C58.3885 11.2274 56.5255 10.2206 53.9725 10.2206C49.2395 10.2206 45.5391 14.0449 45.5391 18.79C45.5391 23.5351 49.2395 27.3625 53.9725 27.3625C57.042 27.3625 58.7919 26.1259 59.9102 25.0044C60.8219 24.0908 61.4225 22.78 61.6553 20.9884L54.0287 20.9854Z" fill="#4285F4"/>
<path d="M81.3508 22.9883C81.3508 27.3624 77.9365 30.58 73.7497 30.58C69.5629 30.58 66.1486 27.3624 66.1486 22.9883C66.1486 18.5887 69.5623 15.3966 73.7509 15.3966C77.9394 15.3966 81.352 18.5887 81.352 22.9883H81.3508ZM78.0247 22.9883C78.0247 20.2575 76.0457 18.3875 73.7509 18.3875C71.4561 18.3875 69.4764 20.2563 69.4764 22.9883C69.4764 25.6912 71.4555 27.5891 73.7509 27.5891C76.0462 27.5891 78.0247 25.6894 78.0247 22.9883Z" fill="#EA4335"/>
<path d="M97.9335 22.9883C97.9335 27.3624 94.5222 30.58 90.3324 30.58C86.1427 30.58 82.7307 27.3624 82.7307 22.9883C82.7307 18.5887 86.1439 15.3966 90.3324 15.3966C94.521 15.3966 97.9335 18.5887 97.9335 22.9883V22.9883ZM94.6063 22.9883C94.6063 20.2575 92.6272 18.3875 90.3324 18.3875C88.0376 18.3875 86.058 20.2563 86.058 22.9883C86.058 25.6912 88.037 27.5891 90.3324 27.5891C92.6278 27.5891 94.6063 25.6894 94.6063 22.9883Z" fill="#FBBC04"/>
<path d="M113.829 15.8567V29.4871C113.829 35.0948 110.53 37.3952 106.629 37.3952C102.956 37.3952 100.748 34.922 99.9162 32.9095L102.815 31.7014C103.331 32.938 104.592 34.4043 106.631 34.4043C109.126 34.4043 110.675 32.8513 110.675 29.9472V28.8548H110.56C109.814 29.775 108.38 30.58 106.573 30.58C102.786 30.58 99.3156 27.2727 99.3156 23.0174C99.3156 18.7324 102.786 15.3966 106.573 15.3966C108.38 15.3966 109.814 16.2016 110.56 17.0933H110.675V15.8567H113.829ZM110.903 23.0174C110.903 20.343 109.126 18.3869 106.858 18.3869C104.563 18.3869 102.641 20.3424 102.641 23.0174C102.641 25.6627 104.563 27.5886 106.858 27.5886C109.124 27.5886 110.903 25.6621 110.903 23.0174Z" fill="#4285F4"/>
<path d="M119.465 7.87991H116.137V30.1201H119.465V7.87991Z" fill="#34A853"/>
<path d="M132.315 25.49L134.896 27.2151C134.067 28.4517 132.056 30.58 128.585 30.58C124.282 30.58 121.069 27.2442 121.069 22.9883C121.069 18.4765 124.311 15.3966 128.212 15.3966C132.142 15.3966 134.064 18.5311 134.695 20.2278L135.039 21.0904L124.91 25.2887C125.685 26.8126 126.89 27.5891 128.583 27.5891C130.276 27.5891 131.452 26.758 132.315 25.49V25.49ZM124.368 22.7591L131.138 19.9416C130.765 18.9918 129.647 18.3316 128.327 18.3316C126.635 18.3316 124.282 19.8271 124.368 22.7603" fill="#EA4335"/>
<path d="M50.7511 52.1318C50.7511 50.1832 51.3621 48.5705 52.584 47.2938C53.8231 46.0174 55.3807 45.3792 57.2566 45.3792C59.1325 45.3792 60.6814 46.0174 61.9034 47.2938C63.1425 48.5705 63.7621 50.1832 63.7621 52.1318C63.7621 54.0981 63.1425 55.7108 61.9034 56.9699C60.6811 58.2466 59.1321 58.8848 57.2566 58.8845C55.381 58.8841 53.8235 58.2454 52.584 56.9683C51.3617 55.6923 50.7507 54.0796 50.7511 52.1302V52.1318ZM53.1261 52.1302C53.1261 53.4932 53.522 54.5971 54.3136 55.4419C55.1053 56.2867 56.0863 56.7091 57.2566 56.7091C58.4269 56.7091 59.4079 56.2867 60.1995 55.4419C60.9912 54.5971 61.3871 53.4932 61.3871 52.1302C61.3871 50.7849 60.9912 49.6896 60.1995 48.8445C59.3917 47.9824 58.4107 47.5512 57.2566 47.5509C56.1024 47.5505 55.1211 47.9823 54.3126 48.8461C53.5206 49.6909 53.1247 50.7861 53.1251 52.1318" fill="#5F6368"/>
<path d="M48.4974 39.946H50.9757L46.045 58.4705H43.6183L39.6427 46.2588H39.5395L35.5639 58.4705H33.1373L28 39.946H30.4783L34.3764 54.512H34.4797L38.481 42.4298H40.7012L44.7026 54.512H44.8058L48.4974 39.946Z" fill="#5F6368"/>
<path d="M67.8226 58.4704H65.4476V45.7931H67.7194V47.8628H67.8247C68.0657 47.1902 68.5606 46.6166 69.3094 46.1421C70.0582 45.6676 70.7939 45.4305 71.5164 45.4309C72.2044 45.4309 72.7896 45.5344 73.2718 45.7413L72.5469 48.045C72.2539 47.9246 71.7893 47.8642 71.1528 47.8639C70.2579 47.8639 69.4792 48.2261 68.8168 48.9505C68.1544 49.6749 67.823 50.5197 67.8226 51.4849V58.4704Z" fill="#5F6368"/>
<path d="M85.4956 58.4705H82.6301L78.6803 52.494L76.7442 54.4085V58.4705H74.3691V39.946H76.7442V51.3556L82.217 45.7931H85.2632V45.8966L80.3325 50.8123L85.4956 58.367V58.4705Z" fill="#5F6368"/>
<path d="M95.7721 54.9519C95.7721 56.0562 95.2902 56.9875 94.3265 57.7461C93.3627 58.5047 92.1494 58.8841 90.6865 58.8845C89.4129 58.8845 88.2943 58.5524 87.3305 57.8881C86.3865 57.2493 85.6646 56.3315 85.2653 55.2624L87.3821 54.3569C87.6919 55.1161 88.1438 55.7068 88.7377 56.1288C89.3037 56.5425 89.9865 56.7645 90.687 56.7624C91.4446 56.7624 92.0768 56.5986 92.5837 56.2709C93.0905 55.9432 93.3443 55.5551 93.345 55.1066C93.345 54.297 92.7254 53.702 91.4862 53.3215L89.3177 52.7781C86.8574 52.1572 85.627 50.9667 85.6267 49.2067C85.6267 48.0515 86.0957 47.1243 87.0339 46.4252C87.972 45.7261 89.1723 45.377 90.6349 45.3777C91.7539 45.3777 92.7651 45.645 93.6684 46.1797C94.5718 46.7144 95.204 47.4302 95.5651 48.3271L93.4487 49.2067C93.206 48.6701 92.7932 48.2289 92.2744 47.9517C91.7167 47.6462 91.0897 47.4903 90.4542 47.4992C89.866 47.4904 89.2879 47.6521 88.7893 47.9649C88.2976 48.2753 88.0517 48.6548 88.0517 49.1032C88.0517 49.8277 88.7316 50.3451 90.0912 50.6556L92.0015 51.1471C94.5142 51.7681 95.7705 53.0353 95.7705 54.9488" fill="#5F6368"/>
<path d="M104.02 58.8844C103.091 58.8844 102.243 58.6861 101.477 58.2894C100.712 57.8927 100.122 57.3666 99.7087 56.7112H99.6034L99.7087 58.4705V64.0589H97.3337V45.7932H99.6055V47.5525H99.7109C100.124 46.8974 100.713 46.3713 101.479 45.9743C102.246 45.5772 103.093 45.3789 104.022 45.3792C105.691 45.3792 107.102 46.0346 108.256 47.3455C109.443 48.6739 110.037 50.2694 110.037 52.1318C110.037 54.0122 109.443 55.6077 108.256 56.9182C107.103 58.229 105.691 58.8844 104.022 58.8844H104.02ZM103.635 56.7112C104.771 56.7112 105.726 56.28 106.5 55.4176C107.273 54.5728 107.659 53.4775 107.659 52.1318C107.659 50.8041 107.273 49.7088 106.5 48.8461C105.728 47.9833 104.772 47.5521 103.635 47.5525C102.482 47.5525 101.518 47.9837 100.743 48.8461C99.9859 49.7088 99.6072 50.8041 99.6076 52.1318C99.6076 53.4772 99.9862 54.5811 100.743 55.4435C101.516 56.2883 102.48 56.7107 103.635 56.7107" fill="#5F6368"/>
<path d="M116.541 45.3792C118.297 45.3792 119.682 45.8491 120.697 46.7889C121.712 47.7288 122.219 49.0182 122.22 50.6571V58.4715H119.948V56.7112H119.843C118.862 58.16 117.554 58.8844 115.919 58.8844C114.525 58.8844 113.359 58.4705 112.421 57.6426C111.482 56.8146 111.014 55.7798 111.014 54.5379C111.014 53.2274 111.509 52.1839 112.498 51.4074C113.487 50.6309 114.808 50.2428 116.461 50.2431C117.872 50.2431 119.034 50.5019 119.946 51.0193V50.4739C119.946 49.646 119.619 48.943 118.965 48.365C118.335 47.7966 117.515 47.4872 116.667 47.4986C115.342 47.4986 114.292 48.0591 113.518 49.1803L111.427 47.8603C112.58 46.2059 114.283 45.3787 116.537 45.3787L116.541 45.3792ZM113.468 54.5923C113.468 55.2132 113.731 55.7307 114.256 56.1446C114.78 56.5586 115.395 56.7655 116.1 56.7655C117.097 56.7655 117.988 56.3947 118.771 55.653C119.554 54.9114 119.946 54.0403 119.946 53.04C119.206 52.4539 118.173 52.1607 116.848 52.1603C115.884 52.1603 115.079 52.3932 114.434 52.8589C113.789 53.3246 113.467 53.9024 113.468 54.5923Z" fill="#5F6368"/>
<path d="M130.272 58.8845C128.395 58.8845 126.838 58.2463 125.599 56.9699C124.377 55.6594 123.766 54.0467 123.766 52.1318C123.766 50.1832 124.377 48.5705 125.599 47.2938C126.838 46.0174 128.396 45.3792 130.272 45.3792C131.562 45.3792 132.69 45.7025 133.653 46.3492C134.617 46.9958 135.34 47.8885 135.822 49.0272L133.656 49.9327C132.984 48.3459 131.805 47.5525 130.119 47.5525C129.035 47.5525 128.097 47.9925 127.305 48.8725C126.53 49.7525 126.143 50.8391 126.143 52.1324C126.143 53.4256 126.53 54.5122 127.305 55.3922C128.096 56.2722 129.034 56.7122 130.119 56.7122C131.857 56.7122 133.079 55.9188 133.785 54.332L135.901 55.2375C135.437 56.3759 134.71 57.2684 133.72 57.915C132.73 58.5617 131.581 58.8852 130.274 58.8855" fill="#5F6368"/>
<path d="M143.052 58.8845C141.194 58.8845 139.662 58.2463 138.457 56.9699C137.252 55.6936 136.65 54.0809 136.65 52.1318C136.65 50.2004 137.235 48.5919 138.406 47.3064C139.576 46.0209 141.073 45.3785 142.897 45.3792C144.773 45.3792 146.266 45.9871 147.376 47.2029C148.486 48.4187 149.04 50.1221 149.039 52.3129L149.014 52.5717H139.077C139.112 53.8135 139.525 54.8139 140.316 55.5728C141.107 56.3317 142.053 56.7112 143.156 56.7112C144.67 56.7112 145.857 55.9523 146.718 54.4345L148.835 55.4693C148.295 56.5092 147.477 57.3781 146.473 57.9789C145.466 58.5823 144.326 58.8841 143.052 58.8845V58.8845ZM139.259 50.6054H146.511C146.44 49.7254 146.083 48.9966 145.439 48.4189C144.795 47.8413 143.93 47.5525 142.845 47.5525C141.949 47.5525 141.179 47.8284 140.534 48.3804C139.889 48.9323 139.463 49.674 139.256 50.6054" fill="#5F6368"/>
</svg>
