<svg width="154" height="61" viewBox="0 0 154 61" fill="none" xmlns="http://www.w3.org/2000/svg">
<path d="M121.694 37.0286C120.875 46.4214 112.463 54.1999 102.563 54.42C94.5234 54.5668 86.4839 54.4934 78.4444 54.3466C68.0973 54.1265 59.6111 45.6142 59.4623 35.7078C59.3134 25.6545 65.8641 19.7106 76.509 19.1236C76.9556 19.1236 77.4023 19.0502 77.8489 18.9768V17.7293L79.2633 18.5365L86.9306 22.9394L79.0399 25.4344L77.8489 25.8013V24.4804C76.7323 24.0401 75.318 24.407 73.978 24.7006C67.3529 26.0214 64.3753 30.1308 64.9708 37.102C65.5663 43.5596 71.2238 48.6229 77.9234 48.6963C85.7395 48.6963 93.4813 48.6229 101.297 48.6229C107.476 48.6229 112.091 46.0545 114.622 40.6243C117.004 35.4876 116.26 30.4243 112.463 26.0948C108.369 21.4718 103.158 20.5912 97.2777 22.1322C96.6822 22.279 96.0867 22.4257 95.5656 22.6459C84.8463 7.52931 67.2785 8.99694 58.569 22.6459C46.8075 20.2977 39.0657 24.407 38.0236 33.8732C37.4281 39.1567 39.6613 43.4128 44.2021 46.6416C48.594 49.797 53.656 48.7696 58.4945 48.9164C60.1322 50.6042 61.621 52.2919 63.6309 54.42C57.7501 54.1265 52.4649 54.8603 47.2541 53.6128C37.5769 51.2646 31.1751 42.4588 32.3662 33.1394C33.7061 22.7926 41.7456 15.8948 52.2416 15.9682C53.5815 15.9682 54.9214 15.9682 56.3358 15.9682C67.9484 3.05305 86.1862 3.56672 97.1288 16.1883C100.106 16.4818 103.233 15.8214 106.285 16.5552C116.111 18.7567 122.587 27.3423 121.694 37.0286Z" fill="url(#paint0_linear_3388_1364)"/>
<defs>
<linearGradient id="paint0_linear_3388_1364" x1="33.5069" y1="48.1119" x2="117.863" y2="20.4654" gradientUnits="userSpaceOnUse">
<stop stop-color="#0094D8"/>
<stop offset="0.333398" stop-color="#3ABEE9"/>
<stop offset="0.671959" stop-color="#61D7FF"/>
<stop offset="1" stop-color="#1CACDB"/>
</linearGradient>
</defs>
</svg>
