<svg width="52" height="42" viewBox="0 0 52 42" fill="none" xmlns="http://www.w3.org/2000/svg">
<path d="M6.51643 34.8916L43.4927 34.8916C47.0917 34.8916 50.0093 31.9795 50.0093 28.3873V7.52867C50.0093 3.93644 47.0917 1.02436 43.4927 1.02436L6.51643 1.02436C2.91744 1.02436 -0.000118256 3.93644 -0.000118256 7.52867V28.3873C-0.000118256 31.9795 2.91744 34.8916 6.51643 34.8916Z" fill="#263238"/>
<path d="M37.0443 41.0243H33.5449L26.4338 24.2075H31.7894L37.0443 41.0243Z" fill="#263238"/>
<path d="M9.45922 34.8918L43.4932 34.8918C47.0922 34.8918 50.0098 31.9798 50.0098 28.3875V7.52891C50.0098 3.93668 47.0922 1.0246 43.4932 1.0246L9.45922 1.0246C5.86023 1.0246 2.94267 3.93668 2.94267 7.52891V28.3875C2.94267 31.9798 5.86023 34.8918 9.45922 34.8918Z" fill="#407BFF"/>
<path d="M9.45922 35.3918L43.4932 35.3918C47.3675 35.3918 50.5098 32.2568 50.5098 28.3875V7.52891C50.5098 3.65965 47.3675 0.524605 43.4932 0.524605L9.45922 0.524605C5.58498 0.524605 2.44267 3.65965 2.44267 7.52891V28.3875C2.44267 32.2568 5.58498 35.3918 9.45922 35.3918Z" fill="#3362CC" stroke="#00274E"/>
<path d="M41.567 11.9513H24.2645C23.7968 11.9345 23.3539 11.7372 23.0289 11.4011C22.704 11.0649 22.5225 10.616 22.5225 10.1489C22.5225 9.68174 22.704 9.23284 23.0289 8.89665C23.3539 8.56045 23.7968 8.36319 24.2645 8.34638H41.567C41.8097 8.33766 42.0515 8.37783 42.2783 8.46449C42.505 8.55115 42.7119 8.68251 42.8866 8.85074C43.0614 9.01898 43.2003 9.22063 43.2953 9.44366C43.3902 9.6667 43.4391 9.90653 43.4391 10.1489C43.4391 10.3912 43.3902 10.631 43.2953 10.854C43.2003 11.0771 43.0614 11.2787 42.8866 11.447C42.7119 11.6152 42.505 11.7466 42.2783 11.8332C42.0515 11.9199 41.8097 11.96 41.567 11.9513Z" fill="white"/>
<path d="M18.3351 11.9513H10.4984C10.0307 11.9345 9.58774 11.7372 9.26283 11.4011C8.93791 11.0649 8.75635 10.616 8.75635 10.1489C8.75635 9.68174 8.93791 9.23284 9.26283 8.89665C9.58774 8.56045 10.0307 8.36319 10.4984 8.34638H18.3351C18.5777 8.33766 18.8196 8.37783 19.0463 8.46449C19.273 8.55115 19.4799 8.68251 19.6546 8.85074C19.8294 9.01898 19.9683 9.22063 20.0633 9.44366C20.1582 9.6667 20.2071 9.90653 20.2071 10.1489C20.2071 10.3912 20.1582 10.631 20.0633 10.854C19.9683 11.0771 19.8294 11.2787 19.6546 11.447C19.4799 11.6152 19.273 11.7466 19.0463 11.8332C18.8196 11.9199 18.5777 11.96 18.3351 11.9513Z" fill="white"/>
<path d="M41.5669 19.5492H12.336C11.8683 19.5324 11.4254 19.3352 11.1005 18.999C10.7756 18.6628 10.594 18.2139 10.594 17.7468C10.594 17.2796 10.7756 16.8307 11.1005 16.4945C11.4254 16.1583 11.8683 15.9611 12.336 15.9443H41.5669C41.8095 15.9356 42.0514 15.9757 42.2781 16.0624C42.5048 16.149 42.7117 16.2804 42.8864 16.4486C43.0612 16.6169 43.2001 16.8185 43.2951 17.0416C43.39 17.2646 43.4389 17.5044 43.4389 17.7468C43.4389 17.9891 43.39 18.2289 43.2951 18.4519C43.2001 18.675 43.0612 18.8766 42.8864 19.0449C42.7117 19.2131 42.5048 19.3445 42.2781 19.4311C42.0514 19.5178 41.8095 19.5579 41.5669 19.5492Z" fill="white"/>
<path d="M41.5667 27.1444H28.0257C27.558 27.1276 27.1151 26.9303 26.7902 26.5941C26.4653 26.258 26.2837 25.8091 26.2837 25.342C26.2837 24.8748 26.4653 24.4259 26.7902 24.0898C27.1151 23.7536 27.558 23.5563 28.0257 23.5395H41.5667C41.8094 23.5308 42.0513 23.5709 42.278 23.6576C42.5047 23.7443 42.7116 23.8756 42.8863 24.0439C43.0611 24.2121 43.2 24.4137 43.295 24.6368C43.3899 24.8598 43.4388 25.0996 43.4388 25.342C43.4388 25.5843 43.3899 25.8241 43.295 26.0471C43.2 26.2702 43.0611 26.4718 42.8863 26.64C42.7116 26.8083 42.5047 26.9397 42.278 27.0263C42.0513 27.113 41.8094 27.1531 41.5667 27.1444Z" fill="white"/>
<path d="M42.5914 31.0183L37.0826 41.0183L33.0176 31.0183H42.5914Z" fill="#3362CC"/>
</svg>
