<svg width="34" height="48" viewBox="0 0 35 49" fill="none" xmlns="http://www.w3.org/2000/svg">
<path d="M17.0253 48.3463C18.794 48.3417 20.2257 47.5113 20.2231 46.4916C20.2204 45.472 18.7844 44.6491 17.0156 44.6537C15.2468 44.6583 13.8152 45.4887 13.8178 46.5084C13.8205 47.528 15.2565 48.3509 17.0253 48.3463Z" fill="#263238"/>
<path d="M20.0473 47.0963H19.5287C19.3772 46.815 19.1442 46.5859 18.8601 46.4389C17.8426 45.8484 16.1939 45.8602 15.1783 46.4389C14.8947 46.587 14.6629 46.8176 14.5138 47.1003H13.9951L14.5867 48.0411C14.7404 48.2582 14.9431 48.4362 15.1783 48.5608C16.1959 49.1513 17.8445 49.1414 18.8601 48.5608C19.0947 48.4335 19.2971 48.2544 19.4517 48.0372L20.0473 47.0963Z" fill="#263238"/>
<path d="M17.0205 47.7715C19.6355 47.7715 21.7554 46.5501 21.7554 45.0434C21.7554 43.5367 19.6355 42.3152 17.0205 42.3152C14.4055 42.3152 12.2856 43.5367 12.2856 45.0434C12.2856 46.5501 14.4055 47.7715 17.0205 47.7715Z" fill="#455A64"/>
<path d="M17.0203 47.177C19.7333 47.177 21.9326 45.9098 21.9326 44.3466C21.9326 42.7833 19.7333 41.5161 17.0203 41.5161C14.3072 41.5161 12.1079 42.7833 12.1079 44.3466C12.1079 45.9098 14.3072 47.177 17.0203 47.177Z" fill="#37474F"/>
<path d="M17.0205 46.4999C19.8021 46.4999 22.0571 45.201 22.0571 43.5986C22.0571 41.9963 19.8021 40.6973 17.0205 40.6973C14.2389 40.6973 11.9839 41.9963 11.9839 43.5986C11.9839 45.201 14.2389 46.4999 17.0205 46.4999Z" fill="#455A64"/>
<path d="M17.0207 45.8248C19.871 45.8248 22.1816 44.4932 22.1816 42.8507C22.1816 41.2081 19.871 39.8765 17.0207 39.8765C14.1705 39.8765 11.8599 41.2081 11.8599 42.8507C11.8599 44.4932 14.1705 45.8248 17.0207 45.8248Z" fill="#37474F"/>
<path d="M17.0204 45.1477C19.9393 45.1477 22.3055 43.7844 22.3055 42.1027C22.3055 40.421 19.9393 39.0576 17.0204 39.0576C14.1016 39.0576 11.7354 40.421 11.7354 42.1027C11.7354 43.7844 14.1016 45.1477 17.0204 45.1477Z" fill="#455A64"/>
<path d="M17.0207 44.4706C20.0081 44.4706 22.43 43.0756 22.43 41.3547C22.43 39.6339 20.0081 38.2389 17.0207 38.2389C14.0332 38.2389 11.6113 39.6339 11.6113 41.3547C11.6113 43.0756 14.0332 44.4706 17.0207 44.4706Z" fill="#37474F"/>
<path d="M22.6779 38.5656C22.6779 37.731 22.1237 36.8984 21.0194 36.2627C18.8087 34.9872 15.2256 34.9872 13.0149 36.2627C11.9106 36.8984 11.3584 37.733 11.3584 38.5676V40.4887C11.3584 41.3233 11.9125 42.1578 13.0189 42.7936C15.2315 44.0651 18.8147 44.0651 21.0233 42.7936C22.1277 42.1559 22.6799 41.3213 22.6779 40.4867C22.6779 40.1639 22.6799 38.8904 22.6779 38.5656Z" fill="#FF6407"/>
<path d="M17.0207 0C12.5065 0 8.17725 1.78988 4.98525 4.97588C1.79325 8.16188 0 12.483 0 16.9887C0 30.4777 11.148 32.7157 11.148 38.1523C11.148 39.0183 11.7218 39.8844 12.8676 40.5457C15.1611 41.8665 18.8803 41.8665 21.1738 40.5457C22.3196 39.8844 22.8935 39.0183 22.8935 38.1523C22.8935 32.7157 34.0434 30.4757 34.0434 16.9887C34.0429 12.4828 32.2492 8.1617 29.0569 4.97576C25.8646 1.78981 21.5351 -3.02361e-08 17.0207 0Z" fill="#FFA800"/>
<g style="mix-blend-mode:screen" opacity="0.29">
<path d="M5.33847 5.32976C8.43663 2.23743 12.6388 0.5 17.0207 0.5C21.4028 0.5 25.6052 2.23737 28.7037 5.32966C31.8021 8.42193 33.5429 12.6158 33.5434 16.9887C33.5434 23.5613 30.8398 27.3759 28.1064 30.2445C27.4912 30.8901 26.8761 31.4862 26.2839 32.06C26.2133 32.1283 26.1431 32.1964 26.0732 32.2641C25.421 32.8969 24.7979 33.5086 24.2606 34.1178C23.1902 35.3316 22.3935 36.6078 22.3935 38.1523C22.3935 38.7762 21.9791 39.5036 20.9239 40.1127C19.871 40.7189 18.4594 41.0363 17.0207 41.0363C15.582 41.0363 14.1704 40.7189 13.1175 40.1127C12.0623 39.5036 11.648 38.7762 11.648 38.1523C11.648 36.6078 10.8514 35.3317 9.7811 34.1181C9.24392 33.509 8.62094 32.8973 7.96883 32.2647C7.89906 32.197 7.82892 32.129 7.75845 32.0607C7.1663 31.487 6.55114 30.8909 5.93598 30.2453C3.20316 27.3769 0.5 23.5623 0.5 16.9887C0.5 12.6159 2.24034 8.42207 5.33847 5.32976Z" fill="white"/>
<path d="M5.33847 5.32976C8.43663 2.23743 12.6388 0.5 17.0207 0.5C21.4028 0.5 25.6052 2.23737 28.7037 5.32966C31.8021 8.42193 33.5429 12.6158 33.5434 16.9887C33.5434 23.5613 30.8398 27.3759 28.1064 30.2445C27.4912 30.8901 26.8761 31.4862 26.2839 32.06C26.2133 32.1283 26.1431 32.1964 26.0732 32.2641C25.421 32.8969 24.7979 33.5086 24.2606 34.1178C23.1902 35.3316 22.3935 36.6078 22.3935 38.1523C22.3935 38.7762 21.9791 39.5036 20.9239 40.1127C19.871 40.7189 18.4594 41.0363 17.0207 41.0363C15.582 41.0363 14.1704 40.7189 13.1175 40.1127C12.0623 39.5036 11.648 38.7762 11.648 38.1523C11.648 36.6078 10.8514 35.3317 9.7811 34.1181C9.24392 33.509 8.62094 32.8973 7.96883 32.2647C7.89906 32.197 7.82892 32.129 7.75845 32.0607C7.1663 31.487 6.55114 30.8909 5.93598 30.2453C3.20316 27.3769 0.5 23.5623 0.5 16.9887C0.5 12.6159 2.24034 8.42207 5.33847 5.32976Z" stroke="black"/>
</g>
<path opacity="0.25" d="M17.0203 41.0122C19.7333 41.0122 21.9326 39.745 21.9326 38.1818C21.9326 36.6186 19.7333 35.3513 17.0203 35.3513C14.3072 35.3513 12.1079 36.6186 12.1079 38.1818C12.1079 39.745 14.3072 41.0122 17.0203 41.0122Z" fill="#FF6407"/>
<path opacity="0.25" d="M21.3213 39.5517C21.0767 39.8011 20.7978 40.0145 20.493 40.1856C18.5742 41.2898 15.4643 41.2898 13.5475 40.1856C13.2427 40.0145 12.9639 39.8011 12.7192 39.5517C12.9633 39.3018 13.2423 39.0883 13.5475 38.9179C15.4663 37.8117 18.5762 37.8117 20.493 38.9179C20.7986 39.0878 21.0776 39.3013 21.3213 39.5517Z" fill="#FF6407"/>
<path opacity="0.25" d="M21.3213 39.5517C21.0767 39.8011 20.7978 40.0145 20.493 40.1856C18.5742 41.2898 15.4643 41.2898 13.5475 40.1856C13.2427 40.0145 12.9639 39.8011 12.7192 39.5517C12.9633 39.3018 13.2423 39.0883 13.5475 38.9179C15.4663 37.8117 18.5762 37.8117 20.493 38.9179C20.7986 39.0878 21.0776 39.3013 21.3213 39.5517Z" fill="#0897CB"/>
<path opacity="0.2" d="M25.6818 6.85772C25.4703 6.95019 25.2715 7.06926 25.0902 7.21202C24.4138 7.7415 24.1397 8.67843 24.2639 9.52875C24.5045 11.1723 26.09 12.1958 27.007 13.4654C28.0153 14.8668 28.7665 16.4356 29.2256 18.0989C29.3616 18.5929 29.5391 19.4137 29.7935 19.8605C29.9548 20.1482 30.2175 20.3658 30.5306 20.4709C30.8437 20.5761 31.1847 20.5612 31.4875 20.4294C32.1481 20.079 32.4912 19.2484 32.5839 18.6047C33.1361 14.7606 32.3493 11.8848 30.4147 8.92644C29.3439 7.32225 27.6696 6.00937 25.6818 6.85772Z" fill="white"/>
<path opacity="0.2" d="M17.0183 25.8797C23.723 25.8797 29.1582 20.4547 29.1582 13.7626C29.1582 7.07053 23.723 1.64554 17.0183 1.64554C10.3136 1.64554 4.87842 7.07053 4.87842 13.7626C4.87842 20.4547 10.3136 25.8797 17.0183 25.8797Z" fill="white"/>
<path opacity="0.2" d="M29.35 22.5079C29.2701 22.7597 29.2447 23.0254 29.2753 23.2877C29.3058 23.5499 29.3918 23.8028 29.5274 24.0295C29.6823 24.2703 29.9256 24.4409 30.2051 24.5046C30.4846 24.5683 30.778 24.52 31.0222 24.37C31.2692 24.2112 31.4726 23.9934 31.6138 23.7363C31.755 23.4791 31.8296 23.1909 31.8308 22.8977C31.8209 22.2757 31.4166 21.6104 30.7245 21.5434C30.0796 21.4785 29.5235 21.9863 29.35 22.5079Z" fill="white"/>
<path opacity="0.15" d="M13.6126 36.4339C13.234 34.2805 12.6463 33.1251 9.98999 31.767C7.33363 30.4088 2.73677 28.3421 0.808105 22.8012C3.37177 31.3005 11.1476 33.6113 11.1476 38.1542C11.1476 39.0203 11.7214 39.8864 12.8672 40.5477C13.3645 40.8269 13.8944 41.0438 14.4449 41.1933L13.6126 36.4339Z" fill="#BA68C8"/>
<path opacity="0.15" d="M20.4284 36.4339C20.807 34.2805 21.3947 33.1251 24.053 31.767C26.7113 30.4088 31.3042 28.3421 33.2348 22.8012C30.6712 31.3005 22.8934 33.6113 22.8934 38.1542C22.8934 39.0203 22.3196 39.8864 21.1738 40.5477C20.6765 40.8267 20.1466 41.0436 19.5962 41.1933C19.8328 39.8293 20.1937 37.7724 20.4284 36.4339Z" fill="#BA68C8"/>
<path d="M19.0085 39.8785H18.8112C18.8112 33.8318 19.1642 30.0368 19.9945 27.2083C20.2021 26.476 20.4801 25.7654 20.8247 25.0865C19.4118 24.6185 18.1151 23.8556 17.0206 22.8485C15.9268 23.8554 14.6307 24.6183 13.2185 25.0865C13.5631 25.7654 13.8412 26.476 14.0488 27.2083C14.877 30.0427 15.232 33.8318 15.232 39.8785H15.0348C15.0348 33.8515 14.6838 30.0782 13.8614 27.2634C13.6531 26.5308 13.3724 25.8207 13.0233 25.1435C12.8378 25.1959 12.6495 25.238 12.4593 25.2695C10.4873 25.6002 9.32573 25.0294 8.90963 24.3857C8.76747 24.1697 8.69387 23.9159 8.69844 23.6574C8.70302 23.399 8.78555 23.1479 8.93527 22.937C9.08292 22.7249 9.29022 22.5613 9.53099 22.4667C9.77177 22.3721 10.0352 22.3508 10.2881 22.4056C11.1479 22.5355 12.2286 23.2795 13.1219 24.9191C14.5142 24.4635 15.7921 23.7143 16.8688 22.7225C16.6589 22.518 16.47 22.2932 16.3048 22.0513C15.376 20.6439 15.4312 19.4294 15.7921 18.7602C15.9061 18.536 16.0802 18.3476 16.295 18.2161C16.5098 18.0845 16.7568 18.0149 17.0088 18.0149C17.2608 18.0149 17.5079 18.0845 17.7226 18.2161C17.9374 18.3476 18.1115 18.536 18.2256 18.7602C18.5864 19.4294 18.6417 20.6439 17.7128 22.0513C17.5476 22.2932 17.3587 22.518 17.1488 22.7225C18.2256 23.7143 19.5034 24.4635 20.8957 24.9191C21.789 23.2795 22.8677 22.5355 23.7295 22.4056C23.9859 22.3455 24.2545 22.3641 24.5001 22.4589C24.7457 22.5537 24.9569 22.7204 25.106 22.937C25.2593 23.1479 25.3448 23.4003 25.3512 23.6608C25.3575 23.9213 25.2844 24.1775 25.1415 24.3956C24.7215 25.0392 23.5639 25.61 21.5918 25.2793C21.4009 25.248 21.212 25.206 21.0259 25.1534C20.6731 25.8282 20.3884 26.5363 20.1759 27.2674C19.3575 30.0782 19.0085 33.8515 19.0085 39.8785ZM21.1146 24.9664C21.2842 25.0117 21.4518 25.0491 21.6155 25.0766C23.5027 25.3896 24.5834 24.8699 24.968 24.2794C25.091 24.0936 25.1536 23.8745 25.1472 23.6518C25.1409 23.4292 25.0659 23.214 24.9325 23.0354C24.8051 22.8555 24.6271 22.7173 24.4211 22.6381C24.2151 22.559 23.9903 22.5424 23.7749 22.5906C23.0078 22.7067 21.9784 23.4114 21.1146 24.9664ZM10.0258 22.5729C9.84518 22.5648 9.66548 22.603 9.5039 22.684C9.34232 22.765 9.20425 22.886 9.10289 23.0354C8.9695 23.214 8.89451 23.4292 8.88816 23.6518C8.88181 23.8745 8.94439 24.0936 9.06739 24.2794C9.4618 24.8699 10.5385 25.3896 12.4199 25.0766C12.5835 25.0491 12.7512 25.0117 12.9227 24.9664C12.057 23.4114 11.0276 22.7067 10.2605 22.5906C10.1828 22.5791 10.1044 22.5731 10.0258 22.5729ZM17.0206 18.2012C16.8039 18.1996 16.5911 18.2589 16.4066 18.3724C16.2221 18.4859 16.0734 18.6489 15.9774 18.8429C15.5594 19.6302 15.7566 20.8329 16.4823 21.9332C16.64 22.1649 16.8203 22.3805 17.0206 22.5768C17.2215 22.3798 17.4025 22.1635 17.561 21.9312C18.2847 20.8329 18.4839 19.6223 18.0638 18.8429C17.9681 18.6488 17.8194 18.4856 17.6348 18.3721C17.4503 18.2586 17.2374 18.1993 17.0206 18.2012Z" fill="#FF6407"/>
</svg>